<svg width="41" height="41" viewBox="0 0 41 41" fill="none" xmlns="http://www.w3.org/2000/svg">
<path d="M3.54451 7.9042C3.81182 5.61301 5.61184 3.80205 7.90137 3.52088L32.5 0.5H32.8197C33.5959 0.5 34.3615 0.680726 35.0557 1.02786L38.2361 2.61803C39.93 3.46499 41 5.19631 41 7.09017V36C41 38.7614 38.7614 41 36 41H7.09017C5.19631 41 3.46499 39.93 2.61803 38.2361L1.16702 35.334C0.731813 34.4636 0.560067 33.4851 0.672835 32.5186L3.54451 7.9042Z" fill="#C4C4C4"/>
<rect width="37" height="37" rx="5" fill="white"/>
<path d="M23.122 22.15H14.938L13.244 26H10.978L17.952 10.6H20.13L27.126 26H24.816L23.122 22.15ZM22.352 20.39L19.03 12.844L15.708 20.39H22.352Z" fill="black"/>
</svg>
