<svg width="1440" height="1024" viewBox="0 0 1440 1024" fill="none" xmlns="http://www.w3.org/2000/svg">
<g clip-path="url(#clip0_95_1875)">
<rect width="1440" height="1024" fill="#A1D5F1"/>
<rect y="501" width="1440" height="523" fill="#FEEAA5"/>
<path d="M425.868 500.569L1440.15 500.569V946.275C1440.15 987.458 1403.72 1019.12 1362.94 1013.37C1355.15 1012.27 1347.61 1009.82 1340.66 1006.13L1297.87 983.447C1283.54 975.845 1271.86 964.057 1264.39 949.653L1231.45 886.134C1219.27 862.629 1196.22 846.692 1169.93 843.584L969.88 819.942C963.954 819.242 957.969 819.208 952.036 819.841L829.995 832.859C805.254 835.498 781.062 824.337 767.012 803.802L766 802.323C762.138 796.678 759.311 790.391 757.652 783.755C750.609 755.584 723.709 737.05 694.876 740.505L544.908 758.473C521.189 761.315 501.283 740.78 504.862 717.161C507.377 700.561 498.133 684.414 482.544 678.178L451.05 665.581C412.949 650.34 392.88 608.448 404.88 569.206L425.868 500.569Z" fill="url(#paint0_linear_95_1875)"/>
<path d="M551.011 501.711L1447 501.711V894.896C1447 931.281 1414.81 959.253 1378.78 954.178C1371.9 953.209 1365.25 951.051 1359.11 947.8L1323.89 929.143C1309.55 921.547 1297.86 909.765 1290.39 895.364L1264.92 846.312C1252.73 822.821 1229.69 806.897 1203.4 803.794L1032.6 783.632C1026.69 782.934 1020.71 782.9 1014.78 783.531L907.965 794.912C886.131 797.238 864.782 787.394 852.374 769.28L851.477 767.97C848.062 762.985 845.563 757.433 844.096 751.572C837.875 726.717 814.141 710.367 788.701 713.412L656.112 729.28C635.187 731.784 617.63 713.666 620.79 692.83C623.013 678.179 614.852 663.928 601.091 658.43L573.26 647.311C539.607 633.865 521.88 596.866 532.488 562.214L551.011 501.711Z" fill="url(#paint1_linear_95_1875)"/>
<g filter="url(#filter0_d_95_1875)">
<path d="M441.847 662.673L443.559 670.66C417.089 675.224 430.628 678.646 440.707 679.787C436.599 690.284 438.995 691.387 440.707 690.626L452.686 683.781C465.465 689.257 469.8 686.823 470.371 684.921L462.384 675.224C471.968 672.485 472.082 669.519 470.941 668.378H452.116C448.009 662.902 443.559 662.293 441.847 662.673Z" fill="#CD6F42"/>
<path d="M442.989 660.391L444.7 668.378C418.231 672.941 431.77 676.364 441.848 677.505C437.741 688.002 440.137 689.104 441.848 688.344L453.828 681.498C466.606 686.975 470.942 684.541 471.512 682.639L463.526 672.941C473.11 670.203 473.224 667.237 472.083 666.096H453.257C449.15 660.619 444.7 660.011 442.989 660.391Z" fill="#DF7739"/>
<g filter="url(#filter1_f_95_1875)">
<path d="M440.672 660.399L442.522 669.113C413.915 674.092 428.547 677.826 439.439 679.071C435 690.523 437.589 691.726 439.439 690.896L452.386 683.428C466.196 689.402 470.881 686.747 471.498 684.672L462.867 674.092C473.224 671.104 473.348 667.868 472.115 666.623H451.769C447.33 660.648 442.522 659.985 440.672 660.399Z" fill="#EE8749"/>
</g>
</g>
<g filter="url(#filter2_d_95_1875)">
<path d="M533.122 792.74L534.833 800.726C508.364 805.29 521.903 808.713 531.981 809.854C527.874 820.35 530.27 821.453 531.981 820.693L543.961 813.847C556.739 819.323 561.075 816.889 561.645 814.988L553.659 805.29C563.242 802.552 563.357 799.585 562.216 798.444H543.39C539.283 792.968 534.833 792.359 533.122 792.74Z" fill="#BACD42"/>
<path d="M534.264 790.458L535.975 798.444C509.505 803.008 523.044 806.431 533.123 807.571C529.015 818.068 531.411 819.171 533.123 818.41L545.102 811.565C557.881 817.041 562.216 814.607 562.787 812.706L554.8 803.008C564.384 800.269 564.498 797.303 563.357 796.162H544.532C540.425 790.686 535.975 790.077 534.264 790.458Z" fill="#DFD839"/>
<g filter="url(#filter3_f_95_1875)">
<path d="M531.946 790.466L533.796 799.179C505.19 804.158 519.822 807.893 530.713 809.137C526.275 820.589 528.864 821.792 530.713 820.963L543.66 813.494C557.47 819.469 562.156 816.813 562.772 814.739L554.141 804.158C564.499 801.171 564.622 797.934 563.389 796.69H543.044C538.605 790.715 533.796 790.051 531.946 790.466Z" fill="#EBEE49"/>
</g>
</g>
<circle cx="1054.29" cy="150.021" r="155.021" fill="url(#paint2_radial_95_1875)" fill-opacity="0.9"/>
<circle cx="1053.1" cy="148.827" r="41.7948" fill="white"/>
<path opacity="0.5" d="M551.011 501.711L532.488 562.214C521.88 596.866 539.607 633.865 573.26 647.311L601.091 658.43C614.852 663.928 623.013 678.179 620.79 692.83V692.83C617.63 713.666 635.187 731.784 656.112 729.28L788.701 713.412C814.141 710.367 837.875 726.717 844.096 751.572V751.572C845.563 757.433 848.062 762.985 851.477 767.97L852.374 769.28C864.782 787.394 886.131 797.238 907.965 794.912L1014.78 783.531C1020.71 782.9 1026.69 782.934 1032.6 783.632L1203.4 803.794C1229.69 806.897 1252.73 822.821 1264.92 846.312L1290.39 895.364C1297.86 909.765 1309.55 921.547 1323.89 929.143L1356.01 946.158C1364.2 950.496 1373.08 953.375 1382.25 954.667L1447 963.787" stroke="white" stroke-width="12.5502"/>
<path opacity="0.5" d="M429.977 499.429L409.236 567.18C397.357 605.984 417.207 647.415 454.892 662.472L486.058 674.924C501.467 681.08 510.605 697.039 508.117 713.445V713.445C504.578 736.777 524.239 757.066 547.671 754.261L696.144 736.492C724.632 733.083 751.21 751.392 758.176 779.224V779.224C759.819 785.787 762.617 792.005 766.44 797.586L767.445 799.053C781.34 819.338 805.247 830.361 829.696 827.756L949.309 815.012C955.945 814.305 962.64 814.343 969.268 815.126L1160.53 837.703C1189.96 841.178 1215.77 859.009 1229.42 885.315L1258.56 941.439C1266.54 956.82 1278.82 969.549 1293.9 978.08L1339.62 1003.93C1382.87 1028.4 1437.04 1000.63 1442.44 951.237V951.237" stroke="white" stroke-width="14.0538"/>
<path opacity="0.1" fill-rule="evenodd" clip-rule="evenodd" d="M334.432 619.691C335.159 619.682 337.913 622.53 339.56 624.35C349.486 622.663 357.032 623.471 354.037 629.718L353.989 629.728C353.673 630.54 352.089 632.344 347.876 633.834C347.07 634.047 346.199 634.271 345.274 634.503C345.378 635.297 345.376 636.091 345.34 636.741C345.47 636.38 345.63 636.028 345.826 635.691C347.942 634.838 351.196 641.308 345.861 643.636C346.09 647.172 345.852 649.768 345.278 650.021C344.754 650.505 344.193 650.934 343.604 651.31C343.766 651.921 343.877 652.587 343.946 653.297L344.986 653.218L348.551 653.212L349.228 655.427L350.286 655.781L358.628 658.566L358.629 658.563L362.779 659.952L363.213 660.097L363.212 660.096L363.213 660.097C363.477 660.819 364.091 661.861 364.918 662.996C365.276 663.462 365.677 663.972 366.113 664.517C366.501 664.978 366.913 665.438 367.341 665.884C367.33 665.919 367.32 665.955 367.308 665.992C370.833 670.294 375.799 675.991 379.057 679.658L377.887 680.395L387.511 694.686C389.423 696.956 388.753 697.666 388.753 697.666C384.493 701.255 373.981 708.073 370.393 710.093C370.377 710.673 369.691 711.009 368.76 711.213L373.703 723.554C372.684 724.176 371.44 724.789 370.08 725.378C370.609 725.153 371.133 724.921 371.647 724.682C374.563 737.002 380.255 761.482 380.294 763.106C380.513 763.167 380.92 763.572 381.095 764.767C381.117 764.9 381.135 765.045 381.15 765.2L381.15 765.202L381.192 765.472L381.206 765.562C379.949 765.94 378.166 766.428 376.107 766.924C376.592 766.854 376.873 766.87 376.973 767.009C377.314 767.486 376.902 773.996 376.654 777.191L378.619 796.37L378.76 821.041L378.213 836.276L378.353 836.261L395.05 845.494C388.241 846.386 373.894 848.063 370.975 847.636C370.782 847.351 370.848 844.796 372.65 836.855L372.701 836.85L369.437 822.012C367.705 814.421 364.122 798.758 363.645 796.832C363.169 794.907 365.399 782.722 366.574 776.87L364.033 769.044C362.743 769.158 361.506 769.215 360.371 769.195L360.357 769.105L360.092 767.396L360.078 767.306L360.191 767.29L360.379 767.091C359.065 760.036 356.498 745.9 356.75 745.8C357.002 745.701 356.599 745.542 356.365 745.475L355.265 767.167C355.312 767.279 355.37 767.429 355.423 767.596L355.567 767.605L355.893 767.626L355.827 769.394C353.975 769.492 352.106 769.519 350.259 769.49L348.258 778.777C348.74 783.043 348.846 793.619 348.839 798.375L345.858 825.2L343.403 838.994C343.632 839.02 343.769 839.064 343.779 839.131C345.055 840.461 349.309 846.54 351.277 849.413C344.797 850.746 335.786 851.575 335.374 851.07L338.116 839.264L338.225 839.252L336.065 825.291L336.065 825.291L332.335 801.191L333.065 796.543C335.313 790.427 339.571 778.238 338.617 778.41C337.678 778.58 336.176 771.905 335.511 768.389C333.821 768.144 332.23 767.828 330.838 767.425C330.349 767.326 329.91 767.232 329.527 767.144C329.3 766.068 329.457 765.533 329.677 765.297L329.672 765.261L329.718 765.257C329.816 765.17 329.922 765.137 330.009 765.137L330.109 765.152L329.556 727.787C330.959 728.121 332.673 728.444 334.515 728.743C331.535 728.205 328.901 727.64 327.128 727.217L327.264 726.654L328.603 716.99C327.192 717.753 325.655 718.371 324.844 718.22L324.116 717.839L294.496 712.239L303.768 689.214L302.449 688.735L310.073 669.947L310.193 669.642L310.197 669.642L312.211 664.678L320.372 660.604L320.374 660.536L322.604 659.49L325.867 657.861L326.618 657.783C326.34 656.905 326.11 656.106 325.944 655.476C326.386 654.925 327.914 654.575 328.653 654.463L328.213 653.229C327.715 653.126 327.262 653.015 326.863 652.902C325.518 652.566 324.286 650.569 323.239 647.944C317.068 647.683 316.849 640.569 319.224 640.652C319.494 640.843 319.749 641.05 319.989 641.269C319.656 640.709 319.419 640.157 319.257 639.644C313.657 640.333 308.988 640.454 306.846 639.48C306.848 639.451 306.85 639.423 306.855 639.394C304.388 637.464 309.739 633.933 317.656 630.697C317.343 627.634 317.981 624.948 318.37 623.925C324.437 620.641 333.431 619.704 334.432 619.691ZM310.453 691.645L310.508 691.667L310.479 691.655L310.453 691.645ZM314.465 693.322L306.66 706.583C306.272 706.958 306.068 707.797 308.35 708.144L323.531 714.06L328.006 709.151L328.247 707.808C328.346 707.782 328.447 707.755 328.552 707.729L326.416 700.855L326.393 700.87L325.274 697.238L325.287 697.222L322.594 688.557L319.455 694.918L315.388 693.44C315.388 693.534 315.38 693.621 315.365 693.698L314.465 693.322ZM366.364 687.655L369.43 685.723L378.711 696.152L368.49 705.719C368.369 705.934 368.118 706.129 367.372 706.008L362.1 682.43L366.364 687.655ZM380.282 763.19C380.287 763.187 380.29 763.178 380.292 763.164L380.293 763.172L380.294 763.181C380.294 763.185 380.294 763.188 380.293 763.192C380.289 763.191 380.285 763.19 380.282 763.19ZM351.033 730.35C351.085 730.335 351.114 730.317 351.118 730.295C351.136 730.201 351.176 729.964 351.234 729.622L351.234 729.622L351.234 729.621C351.289 729.298 351.359 728.883 351.441 728.409L351.033 730.35ZM356.474 729.761L356.506 729.823L356.506 729.823L356.474 729.761ZM321.484 642.428C321.576 642.781 321.67 643.134 321.768 643.485C321.583 643.175 321.38 642.867 321.157 642.568C321.281 642.57 321.399 642.518 321.484 642.428Z" fill="url(#paint3_linear_95_1875)"/>
<path d="M358.951 610.073C359.481 609.454 361.088 609.225 361.825 609.188L378.188 609.741L381.726 610.184L382.057 612.947L383.052 613.508L395.214 620.355C393.887 620.001 403.137 637.307 407.928 646.004L394.108 654.075L390.681 647.22L392.56 681.272L395.877 698.409C391.012 701.151 381.836 703.163 377.856 703.826L375.203 694.429L372.328 703.826C365.164 703.296 353.865 699.035 349.111 696.972L349.332 696.308L353.975 677.292L350.548 649.653L346.457 656.95L330.537 647.331L343.915 619.47L358.508 612.947H359.265C359.124 611.852 359.019 610.856 358.951 610.073Z" fill="#F3EED8"/>
<path d="M377.62 574.837C371.252 573.687 359.562 577.822 354.514 580.033C354.514 575.876 355.693 572.257 356.283 570.967C362.806 567.761 371.871 567.761 372.866 567.872C373.662 567.96 376.367 572.552 377.62 574.837Z" fill="#B19074"/>
<path d="M390.776 582.466C400.947 563.892 335.497 580.476 342.572 588.325L390.776 582.466Z" fill="#DCBA9B"/>
<path d="M390.776 582.355C391.55 567.54 343.457 582.355 342.462 588.325C347.769 592.217 372.386 588.841 384.032 586.667C388.631 585.34 390.444 583.24 390.776 582.355Z" fill="#B19074"/>
<path d="M360.259 607.077C357.353 605.772 356.333 594.249 356.187 587.103L363.041 583.65L373.102 581.991L380.181 583.539C381.501 593.559 380.181 605.446 378.97 605.912C372.894 611.225 363.964 608.902 360.259 607.077Z" fill="#F4BA98"/>
<path d="M356.414 588.554L356.726 593.267C356.764 593.84 356.095 594.075 355.831 593.565C354.604 591.197 354.544 588.785 354.776 587.613C354.798 587.499 354.861 587.397 354.949 587.32C364.45 578.967 381.13 580.378 381.237 585.291C381.238 585.323 381.24 585.354 381.245 585.385C381.597 587.654 380.979 590.464 380.759 591.356C380.714 591.537 380.549 591.661 380.452 591.501C379.948 590.67 379.687 586.538 379.598 583.882C379.587 583.537 379.283 583.276 378.938 583.299C376.853 583.439 374.144 583.122 372.168 582.796C371.948 582.759 370.995 583.896 370.957 584.116C370.949 584.165 370.934 584.139 370.889 584.162C370.237 584.496 368.166 584.448 366.356 584.315C365.957 584.286 365.084 585.582 365.154 585.976C365.191 586.187 365.019 586.334 364.805 586.334H361.267C360.902 586.334 360.626 586.666 360.693 587.026L360.832 587.766C360.871 587.974 360.789 588.188 360.581 588.232C359.854 588.385 358.295 588.16 357.129 587.933C356.745 587.858 356.388 588.164 356.414 588.554Z" fill="#784745"/>
<path d="M378.584 587.108C375.576 586.312 371.287 586.113 370.955 586.445C370.955 586.997 371.066 587.329 374.935 588.213C378.031 588.302 378.657 587.513 378.584 587.108Z" fill="#784745"/>
<path d="M357.847 589.558C360.653 588.214 364.829 587.216 365.217 587.48C365.321 588.023 365.274 588.369 361.638 589.962C358.614 590.628 357.851 589.97 357.847 589.558Z" fill="#784745"/>
<path d="M368.635 590.093V592.945C368.635 594.954 371.421 596.781 370.492 598.562C370.354 598.826 369.99 599.039 369.298 599.159" stroke="#B87A6F" stroke-width="2.33703"/>
<path d="M365.78 603.731C367.001 605.222 370.113 606.908 372.791 601.727" stroke="#B87A6F" stroke-width="2.33703"/>
<ellipse cx="362.443" cy="594.183" rx="0.773907" ry="1.3267" fill="#060B02"/>
<ellipse cx="375.268" cy="592.968" rx="0.773907" ry="1.43726" fill="#060B02"/>
<path d="M354.562 591.302C352.209 590.901 351.336 599.6 357.498 600.638C357.628 598.672 357.047 594.064 354.562 591.302Z" fill="#F4BA98"/>
<path d="M381.714 588.653C383.972 587.879 386.233 596.323 380.319 598.34C379.874 596.421 379.706 591.779 381.714 588.653Z" fill="#F4BA98"/>
<path d="M356.306 597.248C354.449 597.248 354.942 595.922 355.422 595.258C355.156 593.666 354.574 593.342 354.316 593.379C352.37 596.297 354.979 599.459 356.306 598.685C356.638 598.022 356.837 597.248 356.306 597.248Z" fill="#D19C7E"/>
<path d="M381.045 594.842C382.862 594.454 382.102 593.26 381.495 592.711C381.422 591.099 381.923 590.66 382.183 590.642C384.696 593.09 382.804 596.727 381.345 596.248C380.882 595.668 380.526 594.953 381.045 594.842Z" fill="#D19C7E"/>
<path d="M361.494 607.309L361.497 607.33C361.744 608.11 375.549 609.607 377.083 606.978C377.857 614.053 373.287 626.767 370.67 633.512C369.786 628.979 366.248 615.933 361.936 610.073L361.497 607.33C361.495 607.323 361.494 607.316 361.494 607.309Z" fill="#D69681"/>
<path d="M395.214 620.354L390.902 617.922C388.816 621.448 388.644 624.606 388.76 625.782C390.704 625.712 393.061 624.375 393.996 623.714C393.797 628.058 394.91 630.725 395.491 631.516C396.959 630.49 398.017 628.956 398.42 627.872C396.762 625.108 395.491 622.013 395.214 620.354Z" fill="#9FB366"/>
<path d="M404.21 639.2L402.342 635.705C400.193 636.425 397.509 638.889 396.436 640.031C398.447 640.722 402.456 639.765 404.21 639.2Z" fill="#A0B266"/>
<path d="M352.096 620.908C352.133 620.097 352.295 617.879 352.649 615.491L357.181 613.611V614.164L357.071 616.707L356.408 619.471C356.223 620.024 355.766 621.306 355.413 622.014L354.196 623.672L352.427 624.778L352.206 624.114L352.096 620.908Z" fill="#9FB368"/>
<path d="M339.16 633.954L337.944 632.075L341.151 625.22L345.352 625.109L347.784 626.436L349.664 628.426L350.327 630.527L349 630.969L345.905 631.411L342.477 631.301L342.809 632.075L344.467 635.281L345.683 638.155L346.236 639.482L346.347 641.472L344.91 640.698L343.362 639.482L341.04 636.607L339.16 633.954Z" fill="#9FB368"/>
<path d="M356.85 651.421C359.504 652.041 363.189 651.679 364.7 651.421C364.258 645.496 359.872 639.002 357.735 636.496C357.293 637.557 358.509 641.14 359.172 642.798C355.634 641.471 353.644 641.729 353.091 642.024C352.915 643.351 357.072 646.778 359.172 648.326C357.757 648.68 357.035 650.537 356.85 651.421Z" fill="#9FB368"/>
<path d="M352.428 665.021L351.875 660.488C355.678 656.154 359.282 655.881 360.609 656.286C360.432 659.205 355.081 663.325 352.428 665.021Z" fill="#9FB368"/>
<path d="M370.559 663.031C369.233 659.227 371.481 655.697 372.77 654.407C373.017 654.142 373.389 655.844 373.544 656.729C375.579 653.722 377.782 653.191 378.63 653.301C378.365 659.846 373.139 662.515 370.559 663.031Z" fill="#9FB368"/>
<path d="M377.967 646.225C382.477 646.225 387.585 642.54 389.575 640.698C389.133 640.432 384.895 640.808 382.831 641.029C386.945 637.403 389.041 631.484 389.575 628.978C385.33 628.536 381.91 634.764 380.731 637.934C379.935 634.926 378.335 632.848 377.635 632.185C374.893 636.695 376.714 643.425 377.967 646.225Z" fill="#9FB368"/>
<path d="M391.939 670.106L391.607 665.131L387.185 664.468C387.715 666.856 390.575 669.222 391.939 670.106Z" fill="#9FB368"/>
<path d="M385.305 677.956C385.128 679.725 379.851 685.032 377.235 687.464L377.787 683.926C376.107 678.619 377.824 673.091 378.893 670.991C379.512 672.052 379.446 674.75 379.335 675.966C381.016 672.428 384.015 670.585 385.305 670.106C385.924 673.025 382.541 677.145 380.772 678.84C384.31 677.425 385.268 677.661 385.305 677.956Z" fill="#9FB368"/>
<path d="M339.161 640.808C338.453 640.631 337.686 647.81 337.392 651.421L342.588 654.959C343.207 652.837 340.561 644.641 339.161 640.808Z" fill="#9FB368"/>
<path d="M389.796 700.841L385.595 702.168C384.18 695.534 385.521 690.854 386.369 689.343C387.342 689.343 387.953 694.428 388.138 696.971C388.315 695.468 389.612 693.691 390.238 692.991C390.681 693.168 390.238 699.072 389.796 700.841Z" fill="#9FB368"/>
<path d="M360.12 616.134C360.065 615.423 362.186 613.798 363.254 613.074L365.494 617.165C363.689 617.876 361.159 616.774 360.12 616.134Z" fill="#9FB368"/>
<path d="M380.177 614.053L378.961 612.062L378.408 612.947L378.298 614.053H380.177Z" fill="#9FB368"/>
<path d="M367.022 675.302C364.811 672.295 356.887 672.944 353.202 673.644L351.102 681.162C352.34 684.346 355.155 685.879 356.408 686.247C356.851 685.894 355.782 682.71 355.192 681.162C356.254 683.904 360.13 683.631 361.936 683.152C361.936 682.09 358.546 679.319 356.851 678.066C360.3 678.155 365.069 676.26 367.022 675.302Z" fill="#9FB368"/>
<path d="M351.432 697.967C358.066 700.842 372.262 704.335 372.438 703.716C372.615 703.097 374.171 697.193 375.202 694.098L377.855 703.824C378.052 703.762 386.544 702.429 393.666 699.515C394.698 715.251 396.673 746.989 396.319 747.166C396.54 747.239 396.96 747.851 396.872 749.708V750.151C392.523 751.146 382.19 752.893 375.645 751.92V749.708L375.976 749.377C375.755 740.68 375.379 723.263 375.645 723.174C375.91 723.086 375.534 722.843 375.313 722.732L370.891 748.824C371.001 749.34 371.156 750.482 370.891 750.925C370.67 751.146 353.533 750.04 345.794 745.618V743.296H346.236L351.432 697.967Z" fill="#816351"/>
<path d="M396.872 749.598C396.96 747.74 396.54 747.129 396.319 747.055C396.85 748.47 382.757 749.34 375.645 749.598V751.809C382.19 752.782 392.523 751.035 396.872 750.04V749.598Z" fill="#9C7863"/>
<path d="M383.188 835.28H377.439C374.431 844.656 373.974 847.736 374.122 848.105C376.952 848.989 391.443 848.768 398.334 848.547L383.188 835.28Z" fill="#3B3B3B"/>
<path d="M338.276 847.773L342.809 833.843C344.689 833.843 348.448 833.953 348.448 834.396C349.509 836.164 352.796 844.051 354.307 847.773C347.674 848.569 338.608 848.436 338.276 847.773Z" fill="#3B3B3B"/>
<path d="M352.649 760.322C351.676 760.41 351.212 751.882 351.101 747.607C351.632 748.227 361.051 749.855 365.695 750.592L362.157 761.98C361.98 767.198 360.462 780.001 359.725 785.75L352.649 817.812L348.006 834.506H342.92V816.927V787.077L344.357 781.549C347.527 774.436 353.622 760.233 352.649 760.322Z" fill="#F4B997"/>
<path d="M380.62 761.98L379.294 752.14C388.138 752.14 392.118 750.592 392.45 751.366C392.715 751.986 391.308 759.806 390.571 763.638L389.575 787.077L385.927 816.927L382.942 835.943H377.525L376.53 816.927C375.977 807.53 374.827 788.138 374.65 785.75C374.473 783.362 378.557 768.908 380.62 761.98Z" fill="#F4B997"/>
<path d="M352.649 817.572C350.173 815.184 345.131 815.987 342.92 816.688V834.266H348.006L352.649 817.572Z" fill="#F3EED8"/>
<path d="M385.927 816.688C383.539 814.919 378.667 815.951 376.53 816.688L377.525 835.704H382.942L385.927 816.688Z" fill="#F3EED8"/>
<path d="M345.362 745.553C345.272 743.566 345.849 743.148 346.149 743.187C353.164 745.459 365.936 748.314 371.444 749.457L371.107 751.587C360.404 750.924 349.484 747.288 345.362 745.553Z" fill="#9C7863"/>
<path d="M397.425 652.085L406.49 646.336L414.008 665.241C415.556 668.226 414.782 669 414.782 669C410.006 672.804 398.53 679.725 394.661 681.715C394.395 683.483 390.128 682.82 388.359 682.82C388.624 683.439 387.069 685.363 386.258 686.247L386.7 682.046L383.273 684.589L384.6 679.835C382.212 681.958 381.32 682.194 381.173 682.046C380.376 681.25 382.462 678.619 383.605 677.403C380.421 678.818 379.035 678.877 378.74 678.729C380.332 676.43 383.973 674.749 385.595 674.197C386.369 673.865 389.943 675.302 391.786 676.187C392.892 676.717 393.26 676.481 393.444 676.187L405.053 665.905L397.425 652.085Z" fill="#F4B997"/>
<path d="M341.814 654.296L331.864 647.884L319.039 674.749L347.563 685.252L348.226 685.805C349.443 686.247 352.686 684.663 354.418 683.484L356.408 685.474C356.762 684.412 356.26 682.673 355.966 681.936L359.835 684.036C360.454 683.594 358.619 680.978 357.624 679.725C358.685 679.371 361.53 680.167 362.82 680.609C362.82 679.725 359.577 677.366 357.956 676.297L362.82 676.518C358.132 673.777 354.97 673.681 353.975 673.976L347.563 680.609L333.412 671.543C331.2 670.836 331.532 669.848 331.974 669.443L341.814 654.296Z" fill="#F4B997"/>
</g>
<defs>
<filter id="filter0_d_95_1875" x="421.304" y="660.3" width="55.9058" height="39.9321" filterUnits="userSpaceOnUse" color-interpolation-filters="sRGB">
<feFlood flood-opacity="0" result="BackgroundImageFix"/>
<feColorMatrix in="SourceAlpha" type="matrix" values="0 0 0 0 0 0 0 0 0 0 0 0 0 0 0 0 0 0 127 0" result="hardAlpha"/>
<feOffset dy="4.56372"/>
<feGaussianBlur stdDeviation="2.28186"/>
<feComposite in2="hardAlpha" operator="out"/>
<feColorMatrix type="matrix" values="0 0 0 0 0 0 0 0 0 0 0 0 0 0 0 0 0 0 0.25 0"/>
<feBlend mode="normal" in2="BackgroundImageFix" result="effect1_dropShadow_95_1875"/>
<feBlend mode="normal" in="SourceGraphic" in2="effect1_dropShadow_95_1875" result="shape"/>
</filter>
<filter id="filter1_f_95_1875" x="416.741" y="651.172" width="65.0332" height="49.0596" filterUnits="userSpaceOnUse" color-interpolation-filters="sRGB">
<feFlood flood-opacity="0" result="BackgroundImageFix"/>
<feBlend mode="normal" in="SourceGraphic" in2="BackgroundImageFix" result="shape"/>
<feGaussianBlur stdDeviation="4.56372" result="effect1_foregroundBlur_95_1875"/>
</filter>
<filter id="filter2_d_95_1875" x="512.579" y="790.366" width="55.9058" height="39.9321" filterUnits="userSpaceOnUse" color-interpolation-filters="sRGB">
<feFlood flood-opacity="0" result="BackgroundImageFix"/>
<feColorMatrix in="SourceAlpha" type="matrix" values="0 0 0 0 0 0 0 0 0 0 0 0 0 0 0 0 0 0 127 0" result="hardAlpha"/>
<feOffset dy="4.56372"/>
<feGaussianBlur stdDeviation="2.28186"/>
<feComposite in2="hardAlpha" operator="out"/>
<feColorMatrix type="matrix" values="0 0 0 0 0 0 0 0 0 0 0 0 0 0 0 0 0 0 0.25 0"/>
<feBlend mode="normal" in2="BackgroundImageFix" result="effect1_dropShadow_95_1875"/>
<feBlend mode="normal" in="SourceGraphic" in2="effect1_dropShadow_95_1875" result="shape"/>
</filter>
<filter id="filter3_f_95_1875" x="508.015" y="781.239" width="65.0332" height="49.0596" filterUnits="userSpaceOnUse" color-interpolation-filters="sRGB">
<feFlood flood-opacity="0" result="BackgroundImageFix"/>
<feBlend mode="normal" in="SourceGraphic" in2="BackgroundImageFix" result="shape"/>
<feGaussianBlur stdDeviation="4.56372" result="effect1_foregroundBlur_95_1875"/>
</filter>
<linearGradient id="paint0_linear_95_1875" x1="890.226" y1="793.788" x2="1079.62" y2="551.911" gradientUnits="userSpaceOnUse">
<stop stop-color="#54B9E6"/>
<stop offset="1" stop-color="#4ED2B1"/>
</linearGradient>
<linearGradient id="paint1_linear_95_1875" x1="961.211" y1="760.433" x2="1128.28" y2="546.826" gradientUnits="userSpaceOnUse">
<stop stop-color="#43ABDA"/>
<stop offset="1" stop-color="#32CAA4"/>
</linearGradient>
<radialGradient id="paint2_radial_95_1875" cx="0" cy="0" r="1" gradientUnits="userSpaceOnUse" gradientTransform="translate(1054.29 150.021) rotate(90) scale(155.021)">
<stop stop-color="#FCFFEB"/>
<stop offset="1" stop-color="#FCFFEB" stop-opacity="0"/>
</radialGradient>
<linearGradient id="paint3_linear_95_1875" x1="344.773" y1="619.691" x2="344.773" y2="851.219" gradientUnits="userSpaceOnUse">
<stop stop-opacity="0"/>
<stop offset="1"/>
</linearGradient>
<clipPath id="clip0_95_1875">
<rect width="1440" height="1024" fill="white"/>
</clipPath>
</defs>
</svg>
