<svg width="41" height="41" viewBox="0 0 41 41" fill="none" xmlns="http://www.w3.org/2000/svg">
<path d="M3.54451 7.9042C3.81182 5.61301 5.61184 3.80205 7.90137 3.52088L32.5 0.5H32.8197C33.5959 0.5 34.3615 0.680726 35.0557 1.02786L38.2361 2.61803C39.93 3.46499 41 5.19631 41 7.09017V36C41 38.7614 38.7614 41 36 41H7.09017C5.19631 41 3.46499 39.93 2.61803 38.2361L1.16702 35.334C0.731813 34.4636 0.560067 33.4851 0.672835 32.5186L3.54451 7.9042Z" fill="#C4C4C4"/>
<rect width="37" height="37" rx="5" fill="white"/>
<path d="M14.31 10.6H20.8C22.428 10.6 23.8727 10.9227 25.134 11.568C26.3953 12.2133 27.3707 13.1227 28.06 14.296C28.764 15.4547 29.116 16.7893 29.116 18.3C29.116 19.8107 28.764 21.1527 28.06 22.326C27.3707 23.4847 26.3953 24.3867 25.134 25.032C23.8727 25.6773 22.428 26 20.8 26H14.31V10.6ZM20.668 24.086C21.9147 24.086 23.0073 23.844 23.946 23.36C24.8993 22.876 25.6327 22.2013 26.146 21.336C26.6593 20.456 26.916 19.444 26.916 18.3C26.916 17.156 26.6593 16.1513 26.146 15.286C25.6327 14.406 24.8993 13.724 23.946 13.24C23.0073 12.756 21.9147 12.514 20.668 12.514H16.51V24.086H20.668Z" fill="black"/>
</svg>
