<svg width="41" height="53" viewBox="0 0 41 53" fill="none" xmlns="http://www.w3.org/2000/svg">
<path d="M3.54451 7.9042C3.81182 5.61301 5.61184 3.80205 7.90137 3.52088L32.5 0.5H32.8197C33.5959 0.5 34.3615 0.680726 35.0557 1.02786L38.2361 2.61803C39.93 3.46499 41 5.19631 41 7.09017V36C41 38.7614 38.7614 41 36 41H7.09017C5.19631 41 3.46499 39.93 2.61803 38.2361L1.16702 35.334C0.731813 34.4636 0.560067 33.4851 0.672835 32.5186L3.54451 7.9042Z" fill="#C4C4C4"/>
<rect width="37" height="37" rx="5" fill="white"/>
<path d="M16.51 12.514V17.882H24.232V19.774H16.51V26H14.31V10.6H25.178V12.514H16.51Z" fill="black"/>
<path d="M11.09 51.08C10.5633 51.08 10.0533 51 9.56 50.84C9.07333 50.6733 8.69 50.46 8.41 50.2L8.78 49.42C9.04667 49.66 9.38667 49.8567 9.8 50.01C10.22 50.1567 10.65 50.23 11.09 50.23C11.67 50.23 12.1033 50.1333 12.39 49.94C12.6767 49.74 12.82 49.4767 12.82 49.15C12.82 48.91 12.74 48.7167 12.58 48.57C12.4267 48.4167 12.2333 48.3 12 48.22C11.7733 48.14 11.45 48.05 11.03 47.95C10.5033 47.8233 10.0767 47.6967 9.75 47.57C9.43 47.4433 9.15333 47.25 8.92 46.99C8.69333 46.7233 8.58 46.3667 8.58 45.92C8.58 45.5467 8.67667 45.21 8.87 44.91C9.07 44.61 9.37 44.37 9.77 44.19C10.17 44.01 10.6667 43.92 11.26 43.92C11.6733 43.92 12.08 43.9733 12.48 44.08C12.88 44.1867 13.2233 44.34 13.51 44.54L13.18 45.34C12.8867 45.1533 12.5733 45.0133 12.24 44.92C11.9067 44.82 11.58 44.77 11.26 44.77C10.6933 44.77 10.2667 44.8733 9.98 45.08C9.7 45.2867 9.56 45.5533 9.56 45.88C9.56 46.12 9.64 46.3167 9.8 46.47C9.96 46.6167 10.1567 46.7333 10.39 46.82C10.63 46.9 10.9533 46.9867 11.36 47.08C11.8867 47.2067 12.31 47.3333 12.63 47.46C12.95 47.5867 13.2233 47.78 13.45 48.04C13.6833 48.3 13.8 48.65 13.8 49.09C13.8 49.4567 13.7 49.7933 13.5 50.1C13.3 50.4 12.9967 50.64 12.59 50.82C12.1833 50.9933 11.6833 51.08 11.09 51.08ZM17.1809 48.53L16.0809 49.55V51H15.1209V43.58H16.0809V48.34L18.9709 45.7H20.1309L17.9009 47.89L20.3509 51H19.1709L17.1809 48.53ZM21.2147 45.7H22.1747V51H21.2147V45.7ZM21.6947 44.68C21.508 44.68 21.3514 44.62 21.2247 44.5C21.1047 44.38 21.0447 44.2333 21.0447 44.06C21.0447 43.8867 21.1047 43.74 21.2247 43.62C21.3514 43.4933 21.508 43.43 21.6947 43.43C21.8814 43.43 22.0347 43.49 22.1547 43.61C22.2814 43.7233 22.3447 43.8667 22.3447 44.04C22.3447 44.22 22.2814 44.3733 22.1547 44.5C22.0347 44.62 21.8814 44.68 21.6947 44.68ZM26.8177 45.65C27.331 45.65 27.791 45.7633 28.1977 45.99C28.6043 46.2167 28.921 46.5333 29.1477 46.94C29.381 47.3467 29.4977 47.8167 29.4977 48.35C29.4977 48.8833 29.381 49.3567 29.1477 49.77C28.921 50.1767 28.6043 50.4933 28.1977 50.72C27.791 50.9467 27.331 51.06 26.8177 51.06C26.4377 51.06 26.0877 50.9867 25.7677 50.84C25.4543 50.6933 25.1877 50.48 24.9677 50.2V52.94H24.0077V45.7H24.9277V46.54C25.141 46.2467 25.411 46.0267 25.7377 45.88C26.0643 45.7267 26.4243 45.65 26.8177 45.65ZM26.7377 50.22C27.0777 50.22 27.381 50.1433 27.6477 49.99C27.921 49.83 28.1343 49.61 28.2877 49.33C28.4477 49.0433 28.5277 48.7167 28.5277 48.35C28.5277 47.9833 28.4477 47.66 28.2877 47.38C28.1343 47.0933 27.921 46.8733 27.6477 46.72C27.381 46.5667 27.0777 46.49 26.7377 46.49C26.4043 46.49 26.101 46.57 25.8277 46.73C25.561 46.8833 25.3477 47.1 25.1877 47.38C25.0343 47.66 24.9577 47.9833 24.9577 48.35C24.9577 48.7167 25.0343 49.0433 25.1877 49.33C25.341 49.61 25.5543 49.83 25.8277 49.99C26.101 50.1433 26.4043 50.22 26.7377 50.22Z" fill="white"/>
</svg>
