<svg width="42" height="58" viewBox="0 0 42 58" fill="none" xmlns="http://www.w3.org/2000/svg">
<path d="M3.54451 7.9042C3.81182 5.61301 5.61184 3.80205 7.90137 3.52088L32.5 0.5H32.8197C33.5959 0.5 34.3615 0.680726 35.0557 1.02786L38.2361 2.61803C39.93 3.46499 41 5.19631 41 7.09017V36C41 38.7614 38.7614 41 36 41H7.09017C5.19631 41 3.46499 39.93 2.61803 38.2361L1.16702 35.334C0.731813 34.4636 0.560067 33.4851 0.672835 32.5186L3.54451 7.9042Z" fill="#C4C4C4"/>
<rect width="37" height="37" rx="5" fill="white"/>
<path d="M16.51 12.514V17.882H24.232V19.774H16.51V26H14.31V10.6H25.178V12.514H16.51Z" fill="black"/>
<path d="M4.124 45.115C4.93067 45.115 5.54667 45.313 5.972 45.709C6.40467 46.105 6.621 46.6953 6.621 47.48V51H5.62V50.23C5.444 50.5013 5.191 50.7103 4.861 50.857C4.53833 50.9963 4.15333 51.066 3.706 51.066C3.05333 51.066 2.529 50.9083 2.133 50.593C1.74433 50.2777 1.55 49.8633 1.55 49.35C1.55 48.8367 1.737 48.426 2.111 48.118C2.485 47.8027 3.079 47.645 3.893 47.645H5.565V47.436C5.565 46.9813 5.433 46.633 5.169 46.391C4.905 46.149 4.51633 46.028 4.003 46.028C3.65833 46.028 3.321 46.0867 2.991 46.204C2.661 46.314 2.38233 46.4643 2.155 46.655L1.715 45.863C2.01567 45.621 2.375 45.4377 2.793 45.313C3.211 45.181 3.65467 45.115 4.124 45.115ZM3.882 50.252C4.28533 50.252 4.63367 50.164 4.927 49.988C5.22033 49.8047 5.433 49.548 5.565 49.218V48.404H3.937C3.04233 48.404 2.595 48.7047 2.595 49.306C2.595 49.5993 2.70867 49.8303 2.936 49.999C3.16333 50.1677 3.47867 50.252 3.882 50.252ZM11.6882 45.115C12.4289 45.115 13.0156 45.3313 13.4482 45.764C13.8882 46.1893 14.1082 46.8163 14.1082 47.645V51H13.0522V47.766C13.0522 47.2013 12.9166 46.776 12.6452 46.49C12.3739 46.204 11.9852 46.061 11.4792 46.061C10.9072 46.061 10.4562 46.2297 10.1262 46.567C9.79622 46.897 9.63122 47.3737 9.63122 47.997V51H8.57522V45.17H9.58722V46.05C9.79989 45.7493 10.0859 45.5183 10.4452 45.357C10.8119 45.1957 11.2262 45.115 11.6882 45.115ZM17.7345 51.066C17.2579 51.066 16.7995 51.0037 16.3595 50.879C15.9195 50.747 15.5749 50.582 15.3255 50.384L15.7655 49.548C16.0222 49.7313 16.3339 49.878 16.7005 49.988C17.0672 50.098 17.4375 50.153 17.8115 50.153C18.7355 50.153 19.1975 49.889 19.1975 49.361C19.1975 49.185 19.1352 49.0457 19.0105 48.943C18.8859 48.8403 18.7282 48.767 18.5375 48.723C18.3542 48.6717 18.0902 48.6167 17.7455 48.558C17.2762 48.4847 16.8912 48.4003 16.5905 48.305C16.2972 48.2097 16.0442 48.0483 15.8315 47.821C15.6189 47.5937 15.5125 47.2747 15.5125 46.864C15.5125 46.336 15.7325 45.9143 16.1725 45.599C16.6125 45.2763 17.2029 45.115 17.9435 45.115C18.3322 45.115 18.7209 45.1627 19.1095 45.258C19.4982 45.3533 19.8172 45.4817 20.0665 45.643L19.6155 46.479C19.1389 46.171 18.5779 46.017 17.9325 46.017C17.4852 46.017 17.1442 46.0903 16.9095 46.237C16.6749 46.3837 16.5575 46.578 16.5575 46.82C16.5575 47.0107 16.6235 47.161 16.7555 47.271C16.8875 47.381 17.0489 47.4617 17.2395 47.513C17.4375 47.5643 17.7125 47.623 18.0645 47.689C18.5339 47.7697 18.9115 47.8577 19.1975 47.953C19.4909 48.041 19.7402 48.195 19.9455 48.415C20.1509 48.635 20.2535 48.943 20.2535 49.339C20.2535 49.867 20.0262 50.2887 19.5715 50.604C19.1242 50.912 18.5119 51.066 17.7345 51.066ZM30.2878 45.17L28.1098 51H27.0978L25.4148 46.578L23.7098 51H22.6978L20.5308 45.17H21.5318L23.2258 49.812L24.9858 45.17H25.8768L27.6038 49.834L29.3418 45.17H30.2878ZM36.4673 48.118C36.4673 48.1987 36.4599 48.305 36.4453 48.437H31.7153C31.7813 48.9503 32.0049 49.3647 32.3863 49.68C32.7749 49.988 33.2553 50.142 33.8273 50.142C34.5239 50.142 35.0849 49.9073 35.5103 49.438L36.0933 50.12C35.8293 50.428 35.4993 50.6627 35.1033 50.824C34.7146 50.9853 34.2783 51.066 33.7943 51.066C33.1783 51.066 32.6319 50.9413 32.1553 50.692C31.6786 50.4353 31.3083 50.0797 31.0443 49.625C30.7876 49.1703 30.6593 48.657 30.6593 48.085C30.6593 47.5203 30.7839 47.0107 31.0333 46.556C31.2899 46.1013 31.6383 45.7493 32.0783 45.5C32.5256 45.2433 33.0279 45.115 33.5853 45.115C34.1426 45.115 34.6376 45.2433 35.0703 45.5C35.5103 45.7493 35.8513 46.1013 36.0933 46.556C36.3426 47.0107 36.4673 47.5313 36.4673 48.118ZM33.5853 46.006C33.0793 46.006 32.6539 46.16 32.3093 46.468C31.9719 46.776 31.7739 47.1793 31.7153 47.678H35.4553C35.3966 47.1867 35.1949 46.787 34.8503 46.479C34.5129 46.1637 34.0913 46.006 33.5853 46.006ZM38.9456 46.149C39.129 45.8117 39.4003 45.555 39.7596 45.379C40.119 45.203 40.5553 45.115 41.0686 45.115V46.138C41.01 46.1307 40.9293 46.127 40.8266 46.127C40.2546 46.127 39.8036 46.2993 39.4736 46.644C39.151 46.9813 38.9896 47.4653 38.9896 48.096V51H37.9336V45.17H38.9456V46.149Z" fill="white"/>
</svg>
