<svg width="74" height="71" viewBox="0 0 74 71" fill="none" xmlns="http://www.w3.org/2000/svg">
<path d="M6.47072 10.8314C6.73803 8.5402 8.53805 6.72924 10.8276 6.44807L56.2799 0.866211H57.6971C58.4733 0.866211 59.2389 1.04694 59.9332 1.39407L68.2355 5.54522C69.9294 6.39218 70.9994 8.1235 70.9994 10.0174V66.0004C70.9994 68.7618 68.7608 71.0004 65.9994 71.0004H10.0164C8.12252 71.0004 6.3912 69.9303 5.54424 68.2364L1.53225 60.2124C1.09705 59.342 0.925301 58.3635 1.03807 57.397L6.47072 10.8314Z" fill="#C4C4C4"/>
<rect width="64.0732" height="64.0732" rx="5" fill="white"/>
<path d="M19.67 42.07C19.25 42.43 18.73 42.71 18.11 42.91C17.49 43.09 16.85 43.18 16.19 43.18C14.59 43.18 13.35 42.75 12.47 41.89C11.59 41.03 11.15 39.8 11.15 38.2V29.47H8.45V27.1H11.15V23.62H14.03V27.1H18.59V29.47H14.03V38.08C14.03 38.94 14.24 39.6 14.66 40.06C15.1 40.52 15.72 40.75 16.52 40.75C17.4 40.75 18.15 40.5 18.77 40L19.67 42.07ZM28.9419 26.95C31.1419 26.95 32.8219 27.49 33.9819 28.57C35.1619 29.65 35.7519 31.26 35.7519 33.4V43H33.0219V40.9C32.5419 41.64 31.8519 42.21 30.9519 42.61C30.0719 42.99 29.0219 43.18 27.8019 43.18C26.0219 43.18 24.5919 42.75 23.5119 41.89C22.4519 41.03 21.9219 39.9 21.9219 38.5C21.9219 37.1 22.4319 35.98 23.4519 35.14C24.4719 34.28 26.0919 33.85 28.3119 33.85H32.8719V33.28C32.8719 32.04 32.5119 31.09 31.7919 30.43C31.0719 29.77 30.0119 29.44 28.6119 29.44C27.6719 29.44 26.7519 29.6 25.8519 29.92C24.9519 30.22 24.1919 30.63 23.5719 31.15L22.3719 28.99C23.1919 28.33 24.1719 27.83 25.3119 27.49C26.4519 27.13 27.6619 26.95 28.9419 26.95ZM28.2819 40.96C29.3819 40.96 30.3319 40.72 31.1319 40.24C31.9319 39.74 32.5119 39.04 32.8719 38.14V35.92H28.4319C25.9919 35.92 24.7719 36.74 24.7719 38.38C24.7719 39.18 25.0819 39.81 25.7019 40.27C26.3219 40.73 27.1819 40.96 28.2819 40.96ZM49.5116 26.95C51.0516 26.95 52.4316 27.29 53.6516 27.97C54.8716 28.65 55.8216 29.6 56.5016 30.82C57.2016 32.04 57.5516 33.45 57.5516 35.05C57.5516 36.65 57.2016 38.07 56.5016 39.31C55.8216 40.53 54.8716 41.48 53.6516 42.16C52.4316 42.84 51.0516 43.18 49.5116 43.18C48.3716 43.18 47.3216 42.96 46.3616 42.52C45.4216 42.08 44.6216 41.44 43.9616 40.6V48.82H41.0816V27.1H43.8416V29.62C44.4816 28.74 45.2916 28.08 46.2716 27.64C47.2516 27.18 48.3316 26.95 49.5116 26.95ZM49.2716 40.66C50.2916 40.66 51.2016 40.43 52.0016 39.97C52.8216 39.49 53.4616 38.83 53.9216 37.99C54.4016 37.13 54.6416 36.15 54.6416 35.05C54.6416 33.95 54.4016 32.98 53.9216 32.14C53.4616 31.28 52.8216 30.62 52.0016 30.16C51.2016 29.7 50.2916 29.47 49.2716 29.47C48.2716 29.47 47.3616 29.71 46.5416 30.19C45.7416 30.65 45.1016 31.3 44.6216 32.14C44.1616 32.98 43.9316 33.95 43.9316 35.05C43.9316 36.15 44.1616 37.13 44.6216 37.99C45.0816 38.83 45.7216 39.49 46.5416 39.97C47.3616 40.43 48.2716 40.66 49.2716 40.66Z" fill="black"/>
</svg>
