<svg width="41" height="41" viewBox="0 0 41 41" fill="none" xmlns="http://www.w3.org/2000/svg">
<path d="M3.54451 7.9042C3.81182 5.61301 5.61184 3.80205 7.90137 3.52088L32.5 0.5H32.8197C33.5959 0.5 34.3615 0.680726 35.0557 1.02786L38.2361 2.61803C39.93 3.46499 41 5.19631 41 7.09017V36C41 38.7614 38.7614 41 36 41H7.09017C5.19631 41 3.46499 39.93 2.61803 38.2361L1.16702 35.334C0.731813 34.4636 0.560067 33.4851 0.672835 32.5186L3.54451 7.9042Z" fill="#C4C4C4"/>
<rect width="37" height="37" rx="5" fill="white"/>
<path d="M17.798 26.176C16.6393 26.176 15.5173 26 14.432 25.648C13.3613 25.2813 12.518 24.812 11.902 24.24L12.716 22.524C13.3027 23.052 14.0507 23.4847 14.96 23.822C15.884 24.1447 16.83 24.306 17.798 24.306C19.074 24.306 20.0273 24.0933 20.658 23.668C21.2887 23.228 21.604 22.6487 21.604 21.93C21.604 21.402 21.428 20.9767 21.076 20.654C20.7387 20.3167 20.3133 20.06 19.8 19.884C19.3013 19.708 18.59 19.51 17.666 19.29C16.5073 19.0113 15.5687 18.7327 14.85 18.454C14.146 18.1753 13.5373 17.75 13.024 17.178C12.5253 16.5913 12.276 15.8067 12.276 14.824C12.276 14.0027 12.4887 13.262 12.914 12.602C13.354 11.942 14.014 11.414 14.894 11.018C15.774 10.622 16.8667 10.424 18.172 10.424C19.0813 10.424 19.976 10.5413 20.856 10.776C21.736 11.0107 22.4913 11.348 23.122 11.788L22.396 13.548C21.7507 13.1373 21.0613 12.8293 20.328 12.624C19.5947 12.404 18.876 12.294 18.172 12.294C16.9253 12.294 15.9867 12.5213 15.356 12.976C14.74 13.4307 14.432 14.0173 14.432 14.736C14.432 15.264 14.608 15.6967 14.96 16.034C15.312 16.3567 15.7447 16.6133 16.258 16.804C16.786 16.98 17.4973 17.1707 18.392 17.376C19.5507 17.6547 20.482 17.9333 21.186 18.212C21.89 18.4907 22.4913 18.916 22.99 19.488C23.5033 20.06 23.76 20.83 23.76 21.798C23.76 22.6047 23.54 23.3453 23.1 24.02C22.66 24.68 21.9927 25.208 21.098 25.604C20.2033 25.9853 19.1033 26.176 17.798 26.176Z" fill="black"/>
</svg>
