<svg width="69" height="90" viewBox="0 0 69 90" fill="none" xmlns="http://www.w3.org/2000/svg">
<path d="M68.426 76.14H69.426V75.14H68.426V76.14ZM68.426 90V91H69.426V90H68.426ZM3.41 90H2.41V91H3.41V90ZM3.41 79.038L2.72139 78.3129L2.41 78.6086V79.038H3.41ZM38.438 45.774L39.1266 46.4991L39.1296 46.4963L38.438 45.774ZM46.376 35.946L45.4815 35.4988L45.4762 35.5097L46.376 35.946ZM44.36 18.054L44.9789 17.2685L44.9789 17.2685L44.36 18.054ZM11.474 23.976L10.8643 24.7686L11.6512 25.3739L12.2622 24.5914L11.474 23.976ZM0.00800005 15.156L-0.793746 14.5583L-1.38245 15.3481L-0.601711 15.9486L0.00800005 15.156ZM13.868 4.446L14.2667 5.36309L14.2729 5.36035L13.868 4.446ZM56.456 7.344L55.8341 8.12711L55.8341 8.12711L56.456 7.344ZM62 39.348L61.0985 38.9153L61.0985 38.9153L62 39.348ZM50.408 53.712L49.7226 52.9838L49.7185 52.9877L50.408 53.712ZM26.846 76.14L26.1565 75.4157L24.345 77.14H26.846V76.14ZM67.426 76.14V90H69.426V76.14H67.426ZM68.426 89H3.41V91H68.426V89ZM4.41 90V79.038H2.41V90H4.41ZM4.09861 79.7631L39.1266 46.4991L37.7494 45.0489L2.72139 78.3129L4.09861 79.7631ZM39.1296 46.4963C43.1076 42.6876 45.8545 39.3138 47.2758 36.3823L45.4762 35.5097C44.2095 38.1222 41.6644 41.3004 37.7464 45.0517L39.1296 46.4963ZM47.2704 36.3932C48.7573 33.4195 49.518 30.4533 49.518 27.504H47.518C47.518 30.0987 46.8507 32.7605 45.4816 35.4988L47.2704 36.3932ZM49.518 27.504C49.518 23.1389 48.0332 19.675 44.9789 17.2685L43.7411 18.8395C46.2308 20.801 47.518 23.6371 47.518 27.504H49.518ZM44.9789 17.2685C41.9593 14.8894 37.6269 13.778 32.138 13.778V15.778C37.4011 15.778 41.2167 16.8506 43.7411 18.8395L44.9789 17.2685ZM32.138 13.778C22.8961 13.778 15.6942 16.9463 10.6858 23.3606L12.2622 24.5914C16.8298 18.7417 23.4039 15.778 32.138 15.778V13.778ZM12.0837 23.1834L0.617711 14.3634L-0.601711 15.9486L10.8643 24.7686L12.0837 23.1834ZM0.809746 15.7537C4.13965 11.2867 8.61472 7.82046 14.2667 5.36307L13.4693 3.52893C7.52928 6.11153 2.76435 9.78528 -0.793746 14.5583L0.809746 15.7537ZM14.2729 5.36035C20.0105 2.8194 26.4222 1.54 33.524 1.54V-0.460005C26.1778 -0.460005 19.4855 0.864588 13.4631 3.53165L14.2729 5.36035ZM33.524 1.54C42.9452 1.54 50.3476 3.77014 55.8341 8.12711L57.0779 6.56089C51.1404 1.84585 43.2548 -0.460005 33.524 -0.460005V1.54ZM55.8341 8.12711C61.2884 12.4584 64.024 18.3341 64.024 25.866H66.024C66.024 17.7739 63.0476 11.3016 57.0779 6.56089L55.8341 8.12711ZM64.024 25.866C64.024 30.5085 63.0478 34.8541 61.0985 38.9153L62.9015 39.7807C64.9842 35.4419 66.024 30.7995 66.024 25.866H64.024ZM61.0985 38.9153C59.16 42.9538 55.3978 47.6425 49.7226 52.9838L51.0934 54.4402C56.8422 49.0295 60.808 44.1422 62.9015 39.7807L61.0985 38.9153ZM49.7185 52.9877L26.1565 75.4157L27.5355 76.8643L51.0975 54.4363L49.7185 52.9877ZM26.846 77.14H68.426V75.14H26.846V77.14Z" fill="black"/>
</svg>
