<svg width="634" height="634" viewBox="0 0 634 634" fill="none" xmlns="http://www.w3.org/2000/svg">
<path d="M61.7391 129C22.9352 181.599 0 246.621 0 317C0 470.856 109.609 599.112 255 627.94C268.383 630.593 282.069 632.404 296 633.315C302.941 633.769 309.944 634 317 634C412.721 634 498.534 591.574 556.658 524.5C604.843 468.896 634 396.353 634 317C634 267.734 622.761 221.092 602.708 179.5C563.41 97.9922 490.26 35.8737 401.5 11.3866C379.686 5.36849 356.929 1.62337 333.5 0.422024C328.035 0.14182 322.534 0 317 0C237.647 0 165.104 29.157 109.5 77.3421C91.7421 92.7306 75.7118 110.06 61.7391 129Z" fill="#4565DB"/>
<path d="M544.009 153.113C550.009 164.313 584.648 174.447 601.217 178.113C561.919 96.6056 488.769 34.4871 400.009 10C411.209 19.1093 397.676 39.5378 389.509 48.6134C307.109 62.2134 287.509 107.28 288.009 128.113C299.609 156.913 314.176 140.113 320.009 128.113C326.809 134.513 322.843 147.447 320.009 153.113C298.809 153.513 289.843 167.947 288.009 175.113C288.009 231.613 321.764 262.613 367.509 175.113C387.109 198.313 396.009 176.78 398.009 163.113C410.509 193.613 439.009 177.613 439.009 163.113C442.209 152.713 447.343 158.78 449.509 163.113C450.309 190.313 416.509 197.113 399.509 197.113C399.909 209.513 364.343 225.28 346.509 231.613C321.709 239.213 321.509 259.613 321.509 270.613C318.009 336.613 383.509 339.613 389.009 331.613C416.209 312.013 434.343 343.78 440.009 362.113C434.409 378.113 441.009 395.447 445.009 402.113C437.009 475.113 459.009 477.113 469.509 487.113C490.509 493.113 501.843 456.613 512.009 436.113C539.209 407.713 552.115 365.613 555.167 348.113C572.494 247.313 534.615 217.447 513.509 215.113C497.909 215.513 488.343 208.28 485.509 204.613C494.309 194.613 512.176 195.447 520.009 197.113C559.609 203.113 552.509 170.28 544.009 153.113Z" fill="#59D89E"/>
<path d="M596.322 418.626C607.522 383.426 597.322 376.959 590.822 378.126C581.621 378.126 573.988 392.125 571.322 399.125C546.122 441.925 559.822 456.292 569.822 458.125C581.022 456.525 592.156 431.125 596.322 418.626Z" fill="#5DD7A2"/>
<path d="M296 633.191C302.941 633.645 309.944 633.876 317 633.876C412.721 633.876 498.534 591.45 556.658 524.376C553.984 512.776 541.105 513.209 535 514.876C491 538.076 475.333 532.209 473 526.376C433 531.176 406 565.709 397.5 582.376C390.333 577.709 372.7 569.476 359.5 573.876C311.5 580.676 297.167 616.253 296 633.191Z" fill="#C1EAF7"/>
<path d="M317.5 0C238.147 0 165.604 29.157 110 77.3421C116.667 87.5614 141 113.5 162.5 90.5C167 81.5 202.5 60 206 93.5C207.833 111.167 216.4 141.2 236 120C246 117.5 273.5 74 257 50C275 59.5 318 36.844 334 0.422024C328.535 0.14182 323.034 0 317.5 0Z" fill="#C1EAF7"/>
<path d="M61.7391 129C22.9352 181.599 0 246.621 0 317C0 470.856 109.609 599.112 255 627.94C260.6 615.092 252.667 596.96 248 589.5C240 582.7 236.667 552.667 236 538.5C216.4 531.3 215.5 500.167 217.5 485.5C206.7 480.7 217 469.833 223.5 465C231.1 423.4 213.667 406.667 204 403.5C186 397.5 160.5 405.5 160.5 412C130.9 407.2 122.833 417 122.5 422.5C122.1 406.9 100.333 401.667 89.5 401C73.9 402.2 56.5 383 56.5 370.5C67.5 353.5 113.5 360 126 370.5C137.2 376.1 151.667 372.833 157.5 370.5C202.3 379.7 207.167 347.333 204 330C204 320.5 183 304 183 293C186.6 286.6 189.5 275 190.5 270C187.7 265.2 183 251.5 183 244C183 236.5 201.5 216 201.5 201.5C203.9 173.5 109.326 141.5 61.7391 129Z" fill="#59D89E"/>
</svg>
