<svg width="69" height="91" viewBox="0 0 69 91" fill="none" xmlns="http://www.w3.org/2000/svg">
<path d="M43.092 37.214L42.3269 36.5701L41.1402 37.9802L42.9692 38.2064L43.092 37.214ZM61.74 45.53L62.467 44.8434L62.467 44.8434L61.74 45.53ZM64.26 76.526L65.1099 77.0529L65.1099 77.0529L64.26 76.526ZM52.416 86.606L52.8397 87.5118L52.8459 87.5089L52.416 86.606ZM14.994 87.614L14.6902 88.5667L14.6984 88.5694L14.7067 88.5718L14.994 87.614ZM0.126 80.054L-0.748565 79.5691L-1.16427 80.3189L-0.486824 80.8442L0.126 80.054ZM7.182 67.328L7.82614 66.5631L6.89666 65.7804L6.30744 66.8431L7.182 67.328ZM18.774 73.754L18.4421 74.6973L18.4525 74.701L18.463 74.7044L18.774 73.754ZM46.62 72.494L47.2032 73.3063L47.207 73.3036L46.62 72.494ZM46.872 53.09L46.2686 53.8874L46.2805 53.8965L46.2928 53.9052L46.872 53.09ZM24.444 49.562H23.444V50.562H24.444V49.562ZM24.444 38.348L23.6788 37.7042L23.444 37.9833V38.348H24.444ZM44.478 14.534L45.2432 15.1778L46.6261 13.534H44.478V14.534ZM4.41 14.534H3.41V15.534H4.41V14.534ZM4.41 0.799994V-0.200006H3.41V0.799994H4.41ZM64.512 0.799994H65.512V-0.200006H64.512V0.799994ZM64.512 11.762L65.2771 12.4059L65.512 12.1268V11.762H64.512ZM42.9692 38.2064C50.96 39.195 56.9332 41.8968 61.013 46.2166L62.467 44.8434C57.9788 40.0912 51.52 37.249 43.2148 36.2216L42.9692 38.2064ZM61.013 46.2166C65.1051 50.5494 67.166 55.9661 67.166 62.54H69.166C69.166 55.5059 66.9429 49.5826 62.467 44.8434L61.013 46.2166ZM67.166 62.54C67.166 67.485 65.9123 71.9633 63.4101 75.9991L65.1099 77.0529C67.8158 72.6887 69.166 67.843 69.166 62.54H67.166ZM63.4101 75.9991C60.9247 80.0078 57.1376 83.25 51.9861 85.7031L52.8459 87.5089C58.2784 84.922 62.3873 81.4442 65.1099 77.0529L63.4101 75.9991ZM51.9923 85.7002C46.9518 88.0579 40.7217 89.26 33.264 89.26V91.26C40.9263 91.26 47.4642 90.0261 52.8397 87.5118L51.9923 85.7002ZM33.264 89.26C27.0587 89.26 21.0657 88.3915 15.2813 86.6562L14.7067 88.5718C20.6823 90.3645 26.8693 91.26 33.264 91.26V89.26ZM15.2978 86.6613C9.59512 84.843 4.74801 82.3729 0.738824 79.2638L-0.486824 80.8442C3.73599 84.1191 8.80088 86.689 14.6902 88.5667L15.2978 86.6613ZM1.00057 80.5389L8.05657 67.8129L6.30744 66.8431L-0.748565 79.5691L1.00057 80.5389ZM6.53786 68.0929C9.83524 70.8696 13.8092 73.0672 18.4421 74.6973L19.1059 72.8107C14.6668 71.2488 10.9128 69.1624 7.82614 66.5631L6.53786 68.0929ZM18.463 74.7044C23.1836 76.2493 28.0346 77.022 33.012 77.022V75.022C28.2454 75.022 23.6044 74.2827 19.085 72.8036L18.463 74.7044ZM33.012 77.022C38.9293 77.022 43.6975 75.8232 47.2032 73.3063L46.0368 71.6817C42.9905 73.8688 38.6867 75.022 33.012 75.022V77.022ZM47.207 73.3036C50.8239 70.6814 52.66 67.1056 52.66 62.666H50.66C50.66 66.4584 49.1361 69.4346 46.033 71.6844L47.207 73.3036ZM52.66 62.666C52.66 58.2457 50.9227 54.7414 47.4512 52.2748L46.2928 53.9052C49.2053 55.9746 50.66 58.8543 50.66 62.666H52.66ZM47.4754 52.2926C44.1122 49.7474 39.0627 48.562 32.508 48.562V50.562C38.8893 50.562 43.4158 51.7286 46.2686 53.8874L47.4754 52.2926ZM32.508 48.562H24.444V50.562H32.508V48.562ZM25.444 49.562V38.348H23.444V49.562H25.444ZM25.2092 38.9918L45.2432 15.1778L43.7128 13.8902L23.6788 37.7042L25.2092 38.9918ZM44.478 13.534H4.41V15.534H44.478V13.534ZM5.41 14.534V0.799994H3.41V14.534H5.41ZM4.41 1.79999H64.512V-0.200006H4.41V1.79999ZM63.512 0.799994V11.762H65.512V0.799994H63.512ZM63.7469 11.1181L42.3269 36.5701L43.8571 37.8579L65.2771 12.4059L63.7469 11.1181Z" fill="black"/>
</svg>
