<svg width="81" height="89" viewBox="0 0 81 89" fill="none" xmlns="http://www.w3.org/2000/svg">
<path d="M80.168 68.966V69.966H81.168V68.966H80.168ZM64.544 68.966V67.966H63.544V68.966H64.544ZM64.544 89V90H65.544V89H64.544ZM48.668 89H47.668V90H48.668V89ZM48.668 68.966H49.668V67.966H48.668V68.966ZM0.284 68.966H-0.716V69.966H0.284V68.966ZM0.284 57.626L-0.510258 57.0184L-0.716 57.2874V57.626H0.284ZM43.754 0.799994V-0.200006H43.2599L42.9597 0.192413L43.754 0.799994ZM61.268 0.799994L62.0664 1.40207L63.2745 -0.200006H61.268V0.799994ZM20.318 55.106L19.5196 54.5039L18.3115 56.106H20.318V55.106ZM49.172 55.106V56.106H50.172V55.106H49.172ZM49.172 37.34V36.34H48.172V37.34H49.172ZM64.544 37.34H65.544V36.34H64.544V37.34ZM64.544 55.106H63.544V56.106H64.544V55.106ZM80.168 55.106H81.168V54.106H80.168V55.106ZM80.168 67.966H64.544V69.966H80.168V67.966ZM63.544 68.966V89H65.544V68.966H63.544ZM64.544 88H48.668V90H64.544V88ZM49.668 89V68.966H47.668V89H49.668ZM48.668 67.966H0.284V69.966H48.668V67.966ZM1.284 68.966V57.626H-0.716V68.966H1.284ZM1.07826 58.2336L44.5483 1.40757L42.9597 0.192413L-0.510258 57.0184L1.07826 58.2336ZM43.754 1.79999H61.268V-0.200006H43.754V1.79999ZM60.4696 0.197921L19.5196 54.5039L21.1164 55.7081L62.0664 1.40207L60.4696 0.197921ZM20.318 56.106H49.172V54.106H20.318V56.106ZM50.172 55.106V37.34H48.172V55.106H50.172ZM49.172 38.34H64.544V36.34H49.172V38.34ZM63.544 37.34V55.106H65.544V37.34H63.544ZM64.544 56.106H80.168V54.106H64.544V56.106ZM79.168 55.106V68.966H81.168V55.106H79.168Z" fill="black"/>
</svg>
