<svg width="193" height="127" viewBox="0 0 193 127" fill="none" xmlns="http://www.w3.org/2000/svg">
<path d="M2.56456 99.2H16.1246V102.296H6.42856V105.752H11.0846C13.1166 105.752 14.6606 106.176 15.7166 107.024C16.7886 107.872 17.3246 109.096 17.3246 110.696C17.3246 112.376 16.7326 113.68 15.5486 114.608C14.3646 115.536 12.6926 116 10.5326 116H2.56456V99.2ZM10.3166 113.12C11.3086 113.12 12.0686 112.928 12.5966 112.544C13.1246 112.144 13.3886 111.568 13.3886 110.816C13.3886 109.344 12.3646 108.608 10.3166 108.608H6.42856V113.12H10.3166ZM30.7876 103.088V116H27.4516V112.304H24.6916L22.2436 116H18.2596L21.2116 111.776C20.3156 111.424 19.6276 110.92 19.1476 110.264C18.6836 109.592 18.4516 108.784 18.4516 107.84C18.4516 106.32 18.9956 105.152 20.0836 104.336C21.1876 103.504 22.6996 103.088 24.6196 103.088H30.7876ZM24.6916 106.136C23.8916 106.136 23.2836 106.28 22.8676 106.568C22.4676 106.856 22.2676 107.32 22.2676 107.96C22.2676 108.6 22.4596 109.072 22.8436 109.376C23.2436 109.664 23.8436 109.808 24.6436 109.808H27.4516V106.136H24.6916ZM48.9299 112.928V118.832H45.4499V116H34.3859V103.088H38.1059V112.928H43.3139V103.088H47.0579V112.928H48.9299ZM59.3964 116L56.5644 112.04L53.6364 116H49.5564L54.5244 109.496L49.7244 103.088H53.9244L56.6604 106.856L59.4684 103.088H63.4524L58.6524 109.4L63.6444 116H59.3964ZM70.2691 102.896C72.2691 102.896 73.8051 103.376 74.8771 104.336C75.9491 105.28 76.4851 106.712 76.4851 108.632V116H72.9811V114.392C72.2771 115.592 70.9651 116.192 69.0451 116.192C68.0531 116.192 67.1891 116.024 66.4531 115.688C65.7331 115.352 65.1811 114.888 64.7971 114.296C64.4131 113.704 64.2211 113.032 64.2211 112.28C64.2211 111.08 64.6691 110.136 65.5651 109.448C66.4771 108.76 67.8771 108.416 69.7651 108.416H72.7411C72.7411 107.6 72.4931 106.976 71.9971 106.544C71.5011 106.096 70.7571 105.872 69.7651 105.872C69.0771 105.872 68.3971 105.984 67.7251 106.208C67.0691 106.416 66.5091 106.704 66.0451 107.072L64.7011 104.456C65.4051 103.96 66.2451 103.576 67.2211 103.304C68.2131 103.032 69.2291 102.896 70.2691 102.896ZM69.9811 113.672C70.6211 113.672 71.1891 113.528 71.6851 113.24C72.1811 112.936 72.5331 112.496 72.7411 111.92V110.6H70.1731C68.6371 110.6 67.8691 111.104 67.8691 112.112C67.8691 112.592 68.0531 112.976 68.4211 113.264C68.8051 113.536 69.3251 113.672 69.9811 113.672ZM79.7375 103.088H83.4575V108.128H89.0735V103.088H92.8175V116H89.0735V111.176H83.4575V116H79.7375V103.088Z" fill="#2AC28B"/>
<path d="M116.566 113.984V118.952H114.406V116H103.774V118.952H101.59V113.984H102.262C103.078 113.936 103.638 113.36 103.942 112.256C104.246 111.152 104.454 109.592 104.566 107.576L104.758 103.28H114.622V113.984H116.566ZM106.678 107.744C106.614 109.344 106.478 110.672 106.27 111.728C106.078 112.768 105.718 113.52 105.19 113.984H112.318V105.296H106.798L106.678 107.744ZM123.029 103.136C124.325 103.136 125.493 103.416 126.533 103.976C127.589 104.536 128.413 105.312 129.005 106.304C129.597 107.296 129.893 108.408 129.893 109.64C129.893 110.888 129.597 112.008 129.005 113C128.413 113.992 127.589 114.768 126.533 115.328C125.493 115.888 124.325 116.168 123.029 116.168C121.909 116.168 120.893 115.992 119.981 115.64C119.085 115.288 118.325 114.776 117.701 114.104L119.045 112.76C120.069 113.768 121.365 114.272 122.933 114.272C124.181 114.272 125.245 113.92 126.125 113.216C127.005 112.496 127.533 111.56 127.709 110.408H121.325V108.704H127.661C127.453 107.6 126.917 106.712 126.053 106.04C125.189 105.352 124.149 105.008 122.933 105.008C121.381 105.008 120.085 105.52 119.045 106.544L117.701 105.224C118.325 104.536 119.093 104.016 120.005 103.664C120.917 103.312 121.925 103.136 123.029 103.136ZM143.988 103.28V116H141.684V105.296H136.212L136.068 108.128C135.988 109.84 135.836 111.272 135.612 112.424C135.388 113.56 135.02 114.472 134.508 115.16C133.996 115.848 133.284 116.192 132.372 116.192C131.956 116.192 131.484 116.12 130.956 115.976L131.1 114.032C131.308 114.08 131.5 114.104 131.676 114.104C132.316 114.104 132.796 113.824 133.116 113.264C133.436 112.704 133.644 112.04 133.74 111.272C133.836 110.504 133.924 109.408 134.004 107.984L134.22 103.28H143.988ZM156.387 116L152.715 111.128L148.995 116H146.427L151.443 109.496L146.667 103.28H149.235L152.739 107.864L156.219 103.28H158.739L153.939 109.496L159.003 116H156.387ZM161.427 103.28H163.731V112.544L171.531 103.28H173.619V116H171.315V106.736L163.539 116H161.427V103.28ZM178.091 103.28H180.395V112.544L188.195 103.28H190.283V116H187.979V106.736L180.203 116H178.091V103.28ZM184.043 101.624C182.859 101.624 181.939 101.344 181.283 100.784C180.627 100.208 180.291 99.384 180.275 98.312H181.835C181.851 98.904 182.051 99.384 182.435 99.752C182.835 100.104 183.363 100.28 184.019 100.28C184.675 100.28 185.203 100.104 185.603 99.752C186.003 99.384 186.211 98.904 186.227 98.312H187.835C187.819 99.384 187.475 100.208 186.803 100.784C186.131 101.344 185.211 101.624 184.043 101.624Z" fill="white"/>
<path fill-rule="evenodd" clip-rule="evenodd" d="M112.695 98.0249L109.066 97.987C108.725 97.8969 108.143 97.7717 107.504 97.6344L107.503 97.6342C107.3 97.5904 107.091 97.5455 106.882 97.5C104.167 96.8437 102.519 95.8373 101.603 95.0536C100.684 94.2553 100.233 92.8571 100.233 90.8686V41.694C100.233 41.3512 100.283 41.0843 100.37 40.9006C100.612 40.3423 102.001 40.0607 104.529 40.0607C110.782 40.0607 115.15 41.0108 117.647 42.9037C119.446 44.28 121.003 47.0275 122.31 51.166C122.68 52.29 123.428 52.7259 124.553 52.4712C125.071 52.3782 125.386 52.2288 125.494 52.0231C125.594 51.8321 125.669 51.4427 125.702 50.8795C125.789 45.4407 125.41 40.6508 124.556 36.5148C124.402 35.7043 123.474 35.4202 121.773 35.6749L70.5226 35.5328C68.6613 35.4031 67.733 36.123 67.733 36.8381C67.733 42.9699 67.1981 47.7107 66.1306 51.0754C65.862 51.9717 66.2386 52.5545 67.2748 52.8018C68.1863 53.2328 68.9059 52.8189 69.4264 51.5456C71.0432 47.461 72.8782 44.6644 74.9506 43.1413C77.7019 41.0818 81.962 40.0582 87.7549 40.0582C89.4268 40.0582 90.3287 40.0705 90.4462 40.1072C91.5448 40.259 92.0941 40.788 92.0941 41.6916V89.5634C92.0941 91.9877 91.5808 93.7484 90.5397 94.8382C89.6258 95.8054 85.2362 97.309 85.2362 97.309L84.3172 97.7288L83.9362 97.7248L79.3081 98.0249V73.5514C76.4668 73.5514 73.8623 72.6043 72.9152 72.1307C57.2892 82.0762 50.1848 68.5801 57.2892 57.9242C42.3722 50.1105 50.8958 39.4567 57.2892 36.6144C48.7652 23.1192 60.1297 16.7263 67.9441 18.8563C64.5345 2.94424 82.1506 3.2301 85.7022 8.2015C92.0951 -6.00416 104.171 1.09912 106.302 8.2015C116.957 -0.321662 126.901 9.62292 124.77 18.8563C140.113 17.7198 139.687 30.9319 134.715 36.6144C150.342 45.1383 139.687 56.5036 134.715 57.9242C145.37 73.5514 125.48 79.9443 119.798 72.1307C118.661 73.2672 114.589 73.5514 112.695 73.5514V98.0249ZM95.8821 32.6762C101.374 32.6762 105.827 28.2239 105.827 22.7317C105.827 17.2394 101.374 12.7871 95.8821 12.7871C90.3898 12.7871 85.9375 17.2394 85.9375 22.7317C85.9375 28.2239 90.3898 32.6762 95.8821 32.6762Z" fill="#2AC28B"/>
</svg>
