<svg width="36" height="89" viewBox="0 0 36 89" fill="none" xmlns="http://www.w3.org/2000/svg">
<path d="M35.036 0.799994H36.036V-0.200006H35.036V0.799994ZM35.036 89V90H36.036V89H35.036ZM18.656 89H17.656V90H18.656V89ZM18.656 14.534H19.656V13.534H18.656V14.534ZM0.00800005 14.534H-0.992V15.534H0.00800005V14.534ZM0.00800005 0.799994V-0.200006H-0.992V0.799994H0.00800005ZM34.036 0.799994V89H36.036V0.799994H34.036ZM35.036 88H18.656V90H35.036V88ZM19.656 89V14.534H17.656V89H19.656ZM18.656 13.534H0.00800005V15.534H18.656V13.534ZM1.008 14.534V0.799994H-0.992V14.534H1.008ZM0.00800005 1.79999H35.036V-0.200006H0.00800005V1.79999Z" fill="black"/>
</svg>
