<svg width="1240" height="1057" viewBox="0 0 1240 1057" fill="none" xmlns="http://www.w3.org/2000/svg">
<g filter="url(#filter0_f_330_290)">
<path fill-rule="evenodd" clip-rule="evenodd" d="M600.573 709.462H1163.13C1170.36 709.462 1176.22 703.603 1176.22 696.375V46.0875C1176.22 38.8595 1170.36 33 1163.13 33H1092.37V667.008H1092.36V33H1034.71H1012.45C1009.96 33 1007.54 33.7087 1005.45 35.0262C1005.89 35.4321 1006.32 35.841 1006.75 36.2528C998.961 39.1143 995.369 49.0689 1000.85 56.3844L1001.51 57.2745C1009.79 68.3364 995.287 88.4247 981.532 87.1011C975.858 86.5551 970.043 86.2716 964.12 86.2716C956.579 86.2716 949.213 86.731 942.091 87.6068L937.589 91.3525C932.552 95.5441 925.643 95.1819 920.592 91.6804C898.6 97.4049 880.196 107.336 868.037 119.836C861.737 126.313 850.585 127.833 842.924 123.042C833.493 117.144 823.016 113.859 811.982 113.859C781.417 113.859 755.128 139.066 743.489 175.203C742.714 177.61 740.412 179.196 737.884 179.196C718.307 179.196 700.484 189.537 687.141 206.468C685.516 208.531 683.381 210.137 680.967 211.17C653.764 222.81 634.618 250.591 634.618 283.01C634.618 288.647 631.122 293.844 625.789 295.671C587.268 308.866 560.519 337.892 560.519 371.578C560.519 388.692 567.424 404.604 579.268 417.848C582.235 421.165 583.731 425.616 582.892 429.987L578.647 452.086C578.645 452.101 578.641 452.115 578.637 452.13C578.635 452.137 578.633 452.144 578.63 452.15C578.621 452.177 578.61 452.202 578.596 452.227C578.542 452.321 578.457 452.393 578.356 452.432C570.023 455.564 562.379 460.187 555.722 465.99C551.485 469.684 545.577 470.977 540.169 469.439C533.847 467.641 527.19 466.68 520.317 466.68C517.056 466.68 513.843 466.897 510.691 467.316L600.573 709.462Z" fill="url(#paint0_linear_330_290)"/>
</g>
<mask id="mask0_330_290" style="mask-type:alpha" maskUnits="userSpaceOnUse" x="33" y="33" width="1174" height="992">
<path fill-rule="evenodd" clip-rule="evenodd" d="M118.72 883.709C154.523 843.813 167.58 835.6 218.759 835.6C228.022 835.6 236.623 837.413 244.498 840.591C255.075 844.86 270.426 838.441 272.435 827.213C282.165 772.842 312.781 708.873 338.804 708.873C370.209 708.873 395.668 755.104 395.668 812.132C395.668 869.16 357.573 935.338 326.168 935.338C320.426 935.338 314.884 934.695 309.659 933.295C303.314 931.596 296.123 933.504 290.098 936.122C280.641 940.23 266.934 939.614 250.137 938.86C204.915 936.829 137.303 933.792 69.9773 1019.23C66.9031 1023.13 61.8295 1025.21 57.0506 1023.86C-0.888772 1007.44 58.9229 945.787 99.5249 903.934C106.804 896.431 113.465 889.564 118.72 883.709ZM517.82 494.142C517.82 438.788 554.754 391.219 607.596 370.408C613.352 368.141 617.096 362.447 616.892 356.265C616.835 354.515 616.806 352.756 616.806 350.989C616.806 298.007 642.954 252.69 679.938 234.256C682.375 233.042 684.463 231.209 685.919 228.909C703.852 200.576 728.084 183.194 754.754 183.194V183.194C758.084 183.194 761.115 181.049 761.957 177.827C777.357 118.838 812.657 77.5883 853.741 77.5883C869.935 77.5883 885.231 83.9976 898.764 95.3763C906.4 101.797 919.182 100.14 924.992 92.0301C950.16 56.9026 999.823 32.9996 1056.98 32.9996C1139.56 32.9996 1206.51 82.9073 1206.51 144.472C1206.51 190.633 1168.87 230.242 1115.22 247.171C1108.62 249.253 1104.35 255.782 1105.24 262.642C1106.73 274.095 1107.52 285.987 1107.52 298.186C1107.52 390.209 1062.73 464.808 1007.48 464.808C974.489 464.808 945.224 438.203 927.003 397.17C922.59 387.234 908.243 384.804 900.047 391.945C886.201 404.009 870.449 410.832 853.741 410.832V410.832C850.411 410.832 847.379 412.976 846.538 416.198C840.362 439.853 830.987 460.655 819.322 477.088C817.378 479.827 816.44 483.154 816.648 486.506C816.804 489.033 816.883 491.58 816.883 494.142C816.883 568.668 749.935 629.082 667.352 629.082C584.768 629.082 517.82 568.668 517.82 494.142Z" fill="url(#paint1_linear_330_290)"/>
</mask>
<g mask="url(#mask0_330_290)">
<g filter="url(#filter1_f_330_290)">
<path fill-rule="evenodd" clip-rule="evenodd" d="M1317.59 1037.54H1317.6L1317.6 -54.3955H1317.59L1317.59 1037.54ZM-111.427 1037.54L302.114 588.618L343.586 504.115L361.36 397.166L578.202 131.775H578.196L361.354 397.166L343.581 503.755L302.108 588.618L-111.432 1037.54H-111.427ZM911.161 96.1251L911.167 96.1251L1073.5 -54.3955H1073.5L911.161 96.1251Z" fill="url(#paint2_radial_330_290)"/>
</g>
<g filter="url(#filter2_f_330_290)">
<path fill-rule="evenodd" clip-rule="evenodd" d="M1164.17 79.9352C1137.07 51.5294 1092.56 32.9996 1042.24 32.9996C985.083 32.9996 935.419 56.9027 910.252 92.0302C904.441 100.14 891.659 101.797 884.023 95.3764C870.491 83.9977 855.195 77.5884 839 77.5884C797.916 77.5884 762.616 118.838 747.216 177.828C746.375 181.05 743.344 183.194 740.015 183.194C713.345 183.194 689.113 200.576 671.18 228.909C669.724 231.209 667.635 233.042 665.199 234.256C628.215 252.69 602.067 298.007 602.067 350.989C602.067 352.756 602.096 354.515 602.153 356.265C602.357 362.448 598.613 368.141 592.857 370.408C540.015 391.219 503.081 438.789 503.081 494.143C503.081 530.492 519.008 563.485 544.908 587.748C548.276 590.904 550.006 595.485 549.249 600.038L545.517 622.494C545.308 623.75 544.917 624.97 544.355 626.114L509.182 697.782C508.627 698.912 507.912 699.957 507.059 700.883L500.86 707.612C512.566 701.772 525.472 698.536 539.032 698.536C548.537 698.536 557.721 700.126 566.395 703.088C572.148 705.053 578.626 703.602 582.885 699.264C591.843 690.138 602.28 682.905 613.726 678.106C613.871 678.046 613.989 677.936 614.06 677.796C614.09 677.738 614.111 677.675 614.122 677.61L620.212 642.274C620.911 638.221 619.628 634.104 616.97 630.966C600.474 611.488 590.788 587.739 590.788 562.11C590.788 513.23 626.023 471.189 676.537 452.574C682.487 450.381 686.37 444.544 686.218 438.205C686.193 437.159 686.18 436.11 686.18 435.058C686.18 388.097 711.313 347.921 746.88 331.52C749.322 330.393 751.441 328.652 752.97 326.44C770.234 301.452 793.511 286.136 819.12 286.136C822.349 286.136 825.286 284.079 826.173 280.974C841.074 228.832 875.02 192.408 914.513 192.408C930.126 192.408 944.873 198.102 957.919 208.209C965.486 214.072 977.508 212.452 983.417 204.921C1007.75 173.911 1055.47 152.834 1110.37 152.834C1124.12 152.834 1137.42 154.156 1150.02 156.625C1163.53 159.275 1178.5 141 1170.82 129.566L1151.18 100.321C1145.34 91.6268 1151.57 79.9352 1162.04 79.9352H1164.17ZM379.465 788.75C373.63 742.984 351.041 708.873 324.065 708.873C298.042 708.873 267.425 772.842 257.695 827.214C255.686 838.441 240.336 844.861 229.758 840.592C221.883 837.413 213.282 835.6 204.018 835.6C152.84 835.6 139.783 843.813 103.98 883.709C98.7249 889.564 92.0635 896.431 84.7847 903.934C44.1827 945.787 -15.629 1007.44 42.3104 1023.86C47.0892 1025.21 52.1628 1023.13 55.2371 1019.23C95.3081 968.379 135.48 948.869 170.973 941.835C176.661 936.264 182.339 930.874 187.672 925.811C194.687 919.152 201.107 913.057 206.171 907.86C240.674 872.452 253.257 865.162 302.578 865.162C311.463 865.162 319.716 866.757 327.275 869.553C337.727 873.418 352.42 866.994 354.636 856.073C359.308 833.052 368.463 808.275 379.465 788.75ZM268.479 959.875L161.06 1076.48C153.334 1084.87 159.283 1098.44 170.685 1098.44H272.529C261.013 1098.44 255.111 1084.64 263.066 1076.31L381.921 951.895C382.838 950.936 382.484 949.348 381.276 948.797C380.472 948.431 379.525 948.654 378.925 949.302C370.549 958.369 354.307 957.697 332.817 956.808C314.607 956.055 292.63 955.146 268.479 959.875Z" fill="url(#paint3_linear_330_290)"/>
</g>
<g filter="url(#filter3_f_330_290)">
<path fill-rule="evenodd" clip-rule="evenodd" d="M1207.09 132.408C1180.07 103.526 1135.17 84.6295 1084.36 84.6295C1027.2 84.6295 977.54 108.533 952.373 143.66C946.562 151.77 933.78 153.427 926.144 147.006C912.612 135.628 897.316 129.218 881.121 129.218C840.038 129.218 804.738 170.468 789.337 229.457C788.496 232.679 785.465 234.823 782.135 234.823C755.465 234.823 731.233 252.206 713.299 280.54C711.843 282.84 709.755 284.672 707.319 285.887C670.335 304.321 644.188 349.637 644.188 402.619C644.188 404.386 644.217 406.145 644.274 407.895C644.478 414.078 640.734 419.771 634.978 422.038C582.136 442.849 545.202 490.418 545.202 545.772C545.202 607.404 590.989 659.386 653.541 675.527C640.443 657.488 632.907 636.346 632.907 613.74C632.907 564.86 668.143 522.819 718.657 504.204C724.607 502.011 728.49 496.174 728.338 489.835C728.313 488.789 728.3 487.74 728.3 486.688C728.3 439.727 753.433 399.551 789 383.149C791.442 382.023 793.561 380.282 795.09 378.069C812.354 353.082 835.631 337.765 861.24 337.765C864.469 337.765 867.407 335.708 868.294 332.603C883.195 280.462 917.142 244.038 956.634 244.038C972.247 244.038 986.994 249.731 1000.04 259.839C1007.61 265.702 1019.63 264.082 1025.54 256.55C1049.87 225.54 1097.59 204.464 1152.49 204.464C1164.23 204.464 1175.64 205.427 1186.56 207.244C1201.19 209.68 1223.57 183.215 1215.29 170.899L1202.19 151.386C1197.57 144.515 1200.49 135.773 1207.09 132.408ZM669.865 701.008C652.159 681.092 628.766 668.978 603.119 668.978C547.869 668.978 503.08 725.19 503.08 794.531C503.08 833.537 517.253 868.389 539.488 891.417L591.225 837.259C591.929 836.522 592.314 835.539 592.314 834.52C592.314 785.503 619.696 743.878 657.745 728.965C662.426 727.131 666.077 723.182 666.931 718.227L669.739 701.936C669.792 701.626 669.834 701.317 669.865 701.008ZM421.584 840.378C415.75 794.613 393.161 760.503 366.185 760.503C340.162 760.503 309.545 824.472 299.815 878.843C297.806 890.071 282.456 896.49 271.878 892.221C264.003 889.043 255.402 887.229 246.138 887.229C194.959 887.229 181.903 895.443 146.099 935.339C140.845 941.194 134.183 948.061 126.904 955.564C86.3025 997.417 26.4907 1059.07 84.4302 1075.49C89.209 1076.84 94.2826 1074.76 97.3568 1070.86C164.683 985.422 232.295 988.459 277.516 990.49C294.313 991.244 308.021 991.86 317.477 987.751C323.502 985.134 330.694 983.225 337.04 984.925C342.264 986.325 347.807 986.968 353.548 986.968C367.196 986.968 382.108 974.47 394.607 955.656C393.823 950.184 393.41 944.184 393.41 937.621C393.41 908.539 405.531 868.868 421.584 840.378Z" fill="#D59B59"/>
</g>
<rect x="-111.438" y="691.881" width="617.081" height="464.663" fill="#C4C4C4"/>
</g>
<defs>
<filter id="filter0_f_330_290" x="477.973" y="0.281147" width="730.965" height="741.9" filterUnits="userSpaceOnUse" color-interpolation-filters="sRGB">
<feFlood flood-opacity="0" result="BackgroundImageFix"/>
<feBlend mode="normal" in="SourceGraphic" in2="BackgroundImageFix" result="shape"/>
<feGaussianBlur stdDeviation="16.3594" result="effect1_foregroundBlur_330_290"/>
</filter>
<filter id="filter1_f_330_290" x="-135.973" y="-78.9347" width="1478.11" height="1141.01" filterUnits="userSpaceOnUse" color-interpolation-filters="sRGB">
<feFlood flood-opacity="0" result="BackgroundImageFix"/>
<feBlend mode="normal" in="SourceGraphic" in2="BackgroundImageFix" result="shape"/>
<feGaussianBlur stdDeviation="12.2696" result="effect1_foregroundBlur_330_290"/>
</filter>
<filter id="filter2_f_330_290" x="1.89839" y="16.6406" width="1187.38" height="1098.16" filterUnits="userSpaceOnUse" color-interpolation-filters="sRGB">
<feFlood flood-opacity="0" result="BackgroundImageFix"/>
<feBlend mode="normal" in="SourceGraphic" in2="BackgroundImageFix" result="shape"/>
<feGaussianBlur stdDeviation="8.17971" result="effect1_foregroundBlur_330_290"/>
</filter>
<filter id="filter3_f_330_290" x="-5.0588" y="19.1922" width="1287.57" height="1122.15" filterUnits="userSpaceOnUse" color-interpolation-filters="sRGB">
<feFlood flood-opacity="0" result="BackgroundImageFix"/>
<feBlend mode="normal" in="SourceGraphic" in2="BackgroundImageFix" result="shape"/>
<feGaussianBlur stdDeviation="32.7189" result="effect1_foregroundBlur_330_290"/>
</filter>
<linearGradient id="paint0_linear_330_290" x1="525.485" y1="334.028" x2="383.647" y2="254.459" gradientUnits="userSpaceOnUse">
<stop stop-color="#BE814C"/>
<stop offset="1" stop-color="#BD894E"/>
</linearGradient>
<linearGradient id="paint1_linear_330_290" x1="264.232" y1="446.8" x2="141.645" y2="406.001" gradientUnits="userSpaceOnUse">
<stop stop-color="#5F432D"/>
<stop offset="1" stop-color="#9E7B55"/>
</linearGradient>
<radialGradient id="paint2_radial_330_290" cx="0" cy="0" r="1" gradientUnits="userSpaceOnUse" gradientTransform="translate(1171.35 -0.361875) rotate(-161.495) scale(108.082 127.18)">
<stop stop-color="#91694B"/>
<stop offset="1" stop-color="#7E6046"/>
</radialGradient>
<linearGradient id="paint3_linear_330_290" x1="719.75" y1="360.911" x2="418.966" y2="99.8907" gradientUnits="userSpaceOnUse">
<stop stop-color="#D8AE6E"/>
<stop offset="1" stop-color="#C89F60"/>
</linearGradient>
</defs>
</svg>
