<svg width="1148" height="866" viewBox="0 0 1148 866" fill="none" xmlns="http://www.w3.org/2000/svg">
<g filter="url(#filter0_f_382_254)">
<path fill-rule="evenodd" clip-rule="evenodd" d="M33 46.0875C33 38.8595 38.8595 33 46.0875 33H987.284C999.027 33 1004.83 47.2679 996.417 55.4619L904.713 144.801C903.069 146.403 903.804 149.222 905.928 150.093V150.093C907.204 150.616 908.657 150.258 909.682 149.334C916.643 143.059 929.381 143.572 946.021 144.243C980.918 145.649 1032.98 147.748 1084.93 89.3827C1088.02 85.9212 1092.72 84.0679 1097.19 85.3038C1140.18 97.2006 1094.27 139.674 1063.01 168.59L1063.01 168.592C1057.36 173.822 1052.18 178.608 1048.1 182.689C1020.29 210.5 1010.15 216.226 970.395 216.226C965.114 216.226 960.11 215.545 955.403 214.306C944.705 211.492 929.829 218.046 927.208 228.794C918.367 265.047 896.175 304.567 877.146 304.567C874.862 304.567 872.619 304.284 870.428 303.739C860.751 301.333 847.726 303.379 842.237 311.705C828.076 333.183 805.386 347.101 779.809 347.101C772.772 347.101 765.954 346.048 759.472 344.073C753.762 342.334 747.436 343.741 743.104 347.846C734.612 355.893 724.569 361.93 713.553 365.306C708.293 366.918 703.974 371.01 702.973 376.42L702.751 377.616C701.85 382.482 703.819 387.389 707.53 390.664C726.508 407.407 738.091 429.736 738.091 454.255C738.091 491.978 710.673 524.514 671.096 539.507C665.121 541.771 661.202 547.658 661.202 554.048V554.048C661.202 590.623 641.284 621.958 612.998 635.042C610.569 636.166 608.444 637.873 606.879 640.044C593.014 659.266 574.449 671.018 554.047 671.018V671.018C551.441 671.018 549.069 672.673 548.334 675.174C536.307 716.074 508.965 744.635 477.16 744.635C465.755 744.635 454.924 740.963 445.167 734.366C437.343 729.075 425.449 730.641 419.172 737.698C398.917 760.464 361.766 775.718 319.289 775.718C261.239 775.718 213.135 747.228 204.513 710.008C204.245 708.851 202.845 708.344 201.933 709.104V709.104C201.654 709.335 201.304 709.462 200.942 709.462H197.289C187.785 709.462 182.28 720.227 187.842 727.932L248.691 812.228C254.939 820.884 248.754 832.976 238.08 832.976H46.0875C38.8595 832.976 33 827.117 33 819.888V46.0875Z" fill="url(#paint0_linear_382_254)"/>
</g>
<defs>
<filter id="filter0_f_382_254" x="0.281147" y="0.281147" width="1147.13" height="865.414" filterUnits="userSpaceOnUse" color-interpolation-filters="sRGB">
<feFlood flood-opacity="0" result="BackgroundImageFix"/>
<feBlend mode="normal" in="SourceGraphic" in2="BackgroundImageFix" result="shape"/>
<feGaussianBlur stdDeviation="16.3594" result="effect1_foregroundBlur_382_254"/>
</filter>
<linearGradient id="paint0_linear_382_254" x1="760.609" y1="455.041" x2="919.609" y2="543.761" gradientUnits="userSpaceOnUse">
<stop stop-color="#5F432D"/>
<stop offset="1" stop-color="#9E7B55"/>
</linearGradient>
</defs>
</svg>
