<svg width="787" height="599" viewBox="0 0 787 599" fill="none" xmlns="http://www.w3.org/2000/svg">
<g filter="url(#filter0_f_400_721)">
<path fill-rule="evenodd" clip-rule="evenodd" d="M753.957 316.521L528.845 166.978L454.065 148.198C454.017 148.03 453.968 147.863 453.919 147.695C432.006 72.5854 346.947 22.3202 263.934 35.4249C220.493 42.2825 186.222 65.1344 166.558 96.1264C131.072 77.0256 93.6821 74.6585 66.6185 93.597C21.5423 125.14 22.1812 203.843 68.0455 269.384C113.91 334.926 187.632 362.487 232.708 330.943C232.762 330.905 232.816 330.867 232.87 330.829L397.44 566.004L753.957 316.521Z" fill="url(#paint0_linear_400_721)"/>
</g>
<defs>
<filter id="filter0_f_400_721" x="0.505756" y="0.628803" width="786.17" height="598.094" filterUnits="userSpaceOnUse" color-interpolation-filters="sRGB">
<feFlood flood-opacity="0" result="BackgroundImageFix"/>
<feBlend mode="normal" in="SourceGraphic" in2="BackgroundImageFix" result="shape"/>
<feGaussianBlur stdDeviation="16.3594" result="effect1_foregroundBlur_400_721"/>
</filter>
<linearGradient id="paint0_linear_400_721" x1="638.468" y1="289.705" x2="239.178" y2="256.033" gradientUnits="userSpaceOnUse">
<stop stop-color="#BE934D"/>
<stop offset="1" stop-color="#A2774A"/>
</linearGradient>
</defs>
</svg>
