<svg width="1021" height="481" viewBox="0 0 1021 481" fill="none" xmlns="http://www.w3.org/2000/svg">
<path d="M976.051 53.6543H66.6917L86.068 130.722C86.5266 132.546 87.3728 134.25 88.549 135.717L132.216 190.19C133.875 192.259 136.123 193.776 138.662 194.539L210.688 216.177L248.829 231.852C253.737 233.869 256.941 238.65 256.941 243.957V309.531C256.941 311.881 257.574 314.188 258.773 316.209L291.387 371.177C292.821 373.594 294.995 375.485 297.586 376.571L359.24 402.395C360.841 403.066 362.56 403.412 364.296 403.412H451.052C452.54 403.412 454.017 403.158 455.419 402.662L550.822 368.894C555.272 367.319 560.226 368.263 563.786 371.364L624.146 423.952C626.529 426.029 629.582 427.172 632.743 427.172H716.853C718.014 427.172 719.17 427.018 720.291 426.713L757.899 416.473C759.61 416.007 761.209 415.199 762.598 414.096L806.49 379.258C809.921 376.535 814.486 375.709 818.654 377.057L896.796 402.335C898.977 403.04 901.306 403.16 903.548 402.683L976.051 387.254V53.6543Z" fill="url(#paint0_linear_394_106)"/>
<g filter="url(#filter0_f_394_106)">
<mask id="mask0_394_106" style="mask-type:alpha" maskUnits="userSpaceOnUse" x="44" y="17" width="940" height="433">
<path fill-rule="evenodd" clip-rule="evenodd" d="M73.6722 17H983.031V348.79L976.05 350.768V410.131L921.394 425.277C919.181 425.89 916.847 425.91 914.624 425.336L814.403 399.436C810.489 398.424 806.328 399.278 803.129 401.748L757.616 436.894C756.235 437.961 754.655 438.74 752.968 439.187L714.315 449.426C713.222 449.715 712.096 449.862 710.964 449.862H624.616C621.516 449.862 618.517 448.762 616.153 446.758L554.071 394.135C550.549 391.149 545.714 390.24 541.348 391.744L443.322 425.499C441.951 425.971 440.511 426.212 439.061 426.212H350.07C348.376 426.212 346.699 425.884 345.131 425.245L281.856 399.459C279.264 398.403 277.079 396.543 275.622 394.153L242.281 339.482C241.029 337.429 240.367 335.072 240.367 332.668V267.635C240.367 262.283 237.108 257.47 232.138 255.483L193.048 239.853L119.239 218.28C116.72 217.543 114.48 216.066 112.811 214.04L68.3658 160.099C66.9885 158.427 66.0475 156.44 65.6274 154.315L44.0002 44.9266H66.2675L80.8662 45.4587L73.6722 17ZM80.8662 45.4587L976.05 78.0894V350.768L929.752 363.884C927.496 364.523 925.109 364.544 922.842 363.945L825.283 338.172C821.304 337.12 817.062 338.002 813.831 340.553L769.576 375.489C768.188 376.584 766.593 377.387 764.887 377.849L727.263 388.037C726.148 388.339 724.998 388.492 723.842 388.492H639.703C636.555 388.492 633.512 387.357 631.133 385.295L570.751 332.973C567.198 329.895 562.268 328.958 557.834 330.519L462.39 364.117C460.994 364.609 459.525 364.86 458.044 364.86H371.264C369.536 364.86 367.826 364.518 366.231 363.854L304.567 338.165C301.975 337.085 299.799 335.2 298.36 332.789L265.77 278.157C264.56 276.13 263.922 273.813 263.922 271.452V206.336C263.922 201.02 260.707 196.233 255.786 194.222L217.669 178.641L145.636 157.118C143.101 156.361 140.854 154.852 139.193 152.791L95.5413 98.6322C94.3574 97.1633 93.505 95.4559 93.0426 93.6268L80.8662 45.4587Z" fill="url(#paint1_linear_394_106)"/>
</mask>
<g mask="url(#mask0_394_106)">
<g filter="url(#filter1_f_394_106)">
<path d="M9.0918 449.867H91.1956L1040.63 470.807L1019.67 359.021L83.3346 91.1642L73.7267 60.635H45.7765L9.0918 449.867Z" fill="#A68256"/>
</g>
</g>
</g>
<g filter="url(#filter2_f_394_106)">
<path d="M955.104 352.119L65.8165 65.8711L98.1066 197.65L219.413 256.994L277.884 374.809L471.625 414.953H955.104V352.119Z" fill="#8B6744"/>
</g>
<defs>
<filter id="filter0_f_394_106" x="30.9125" y="47.5472" width="965.206" height="415.402" filterUnits="userSpaceOnUse" color-interpolation-filters="sRGB">
<feFlood flood-opacity="0" result="BackgroundImageFix"/>
<feBlend mode="normal" in="SourceGraphic" in2="BackgroundImageFix" result="shape"/>
<feGaussianBlur stdDeviation="6.54377" result="effect1_foregroundBlur_394_106"/>
</filter>
<filter id="filter1_f_394_106" x="2.54803" y="54.091" width="1044.62" height="423.259" filterUnits="userSpaceOnUse" color-interpolation-filters="sRGB">
<feFlood flood-opacity="0" result="BackgroundImageFix"/>
<feBlend mode="normal" in="SourceGraphic" in2="BackgroundImageFix" result="shape"/>
<feGaussianBlur stdDeviation="3.27189" result="effect1_foregroundBlur_394_106"/>
</filter>
<filter id="filter2_f_394_106" x="0.3787" y="0.433388" width="1020.16" height="479.957" filterUnits="userSpaceOnUse" color-interpolation-filters="sRGB">
<feFlood flood-opacity="0" result="BackgroundImageFix"/>
<feBlend mode="normal" in="SourceGraphic" in2="BackgroundImageFix" result="shape"/>
<feGaussianBlur stdDeviation="32.7189" result="effect1_foregroundBlur_394_106"/>
</filter>
<linearGradient id="paint0_linear_394_106" x1="411.27" y1="199.408" x2="658.007" y2="413.703" gradientUnits="userSpaceOnUse">
<stop stop-color="#6F5237"/>
<stop offset="1" stop-color="#8F6B45"/>
</linearGradient>
<linearGradient id="paint1_linear_394_106" x1="856.311" y1="43.717" x2="683.484" y2="261.07" gradientUnits="userSpaceOnUse">
<stop stop-color="#6F5237"/>
<stop offset="1" stop-color="#8F6B45"/>
</linearGradient>
</defs>
</svg>
