<svg width="1230" height="948" viewBox="0 0 1230 948" fill="none" xmlns="http://www.w3.org/2000/svg">
<g filter="url(#filter0_f_382_307)">
<path fill-rule="evenodd" clip-rule="evenodd" d="M74 770.912V860.888C74 868.117 79.8595 873.976 87.0875 873.976H279.08C289.754 873.976 295.939 861.884 289.691 853.228L239.718 783.999H87.0876C79.8595 783.999 74 778.14 74 770.912ZM264.735 783.2C285.699 803.453 320.679 816.718 360.291 816.718C402.767 816.718 439.918 801.464 460.172 778.698C466.45 771.641 478.343 770.076 486.167 775.366C495.924 781.963 506.755 785.635 518.16 785.635C549.965 785.635 577.307 757.074 589.333 716.174C590.069 713.673 592.441 712.018 595.047 712.018C615.449 712.018 634.014 700.266 647.879 681.044C649.444 678.873 651.569 677.166 653.998 676.042C682.284 662.958 702.202 631.623 702.202 595.048C702.202 588.658 706.121 582.771 712.096 580.507C751.673 565.514 779.091 532.978 779.091 495.255C779.091 470.736 767.508 448.407 748.53 431.664C744.819 428.389 742.85 423.482 743.751 418.616L743.973 417.42C744.974 412.01 749.293 407.918 754.553 406.306C765.569 402.931 775.612 396.893 784.104 388.846C788.436 384.741 794.762 383.334 800.472 385.073C806.954 387.048 813.772 388.101 820.808 388.101C846.385 388.101 869.076 374.183 883.237 352.705C888.726 344.379 901.751 342.333 911.429 344.739C913.62 345.284 915.863 345.566 918.147 345.566C937.176 345.566 959.368 306.047 968.209 269.794C970.83 259.046 985.706 252.492 996.404 255.306C1001.11 256.545 1006.12 257.226 1011.4 257.226C1051.15 257.226 1061.29 251.5 1089.1 223.689C1093.18 219.608 1098.36 214.822 1104.01 209.592L1104.01 209.59C1135.27 180.674 1181.18 138.201 1138.19 126.304C1133.72 125.068 1129.02 126.921 1125.94 130.383C1073.98 188.748 1021.92 186.649 987.023 185.243C970.382 184.572 957.645 184.059 950.683 190.334C949.659 191.258 948.205 191.616 946.928 191.093C944.805 190.222 944.069 187.403 945.713 185.801L1037.42 96.4619C1045.83 88.268 1040.03 74 1028.28 74H948.902C960.76 74 966.505 88.5074 957.863 96.6263L887.466 162.759C880.298 169.492 883.127 182.181 888.776 190.231C893.946 197.598 896.999 207.976 896.999 222.098C896.999 257.381 868.482 315.022 844.973 315.022C842.666 315.022 840.402 314.747 838.195 314.217C828.875 311.979 816.654 314.027 811.022 321.782C797.356 340.604 775.631 352.773 751.166 352.773C744.293 352.773 737.637 351.812 731.314 350.014C725.907 348.476 719.999 349.769 715.761 353.463C709.104 359.266 701.46 363.889 693.128 367.021C693.026 367.059 692.941 367.132 692.888 367.226C692.863 367.27 692.845 367.317 692.836 367.367L688.592 389.466C687.752 393.837 689.248 398.288 692.215 401.605C704.06 414.849 710.964 430.761 710.964 447.875C710.964 481.561 684.215 510.587 645.695 523.782C640.362 525.609 636.866 530.806 636.866 536.443C636.866 568.862 617.72 596.643 590.517 608.283C588.102 609.316 585.968 610.922 584.342 612.985C570.999 629.916 553.177 640.257 533.6 640.257C531.07 640.257 528.769 641.843 527.993 644.251C516.354 680.387 490.065 705.594 459.5 705.594C448.466 705.594 437.99 702.309 428.558 696.411C420.898 691.62 409.745 693.14 403.445 699.617C383.888 719.723 348.176 733.181 307.363 733.181C301.44 733.181 295.624 732.898 289.95 732.352C276.196 731.028 261.69 751.116 269.971 762.178L270.638 763.069C276.114 770.384 272.523 780.339 264.735 783.2Z" fill="#B98654" fill-opacity="0.8"/>
</g>
<defs>
<filter id="filter0_f_382_307" x="0.382584" y="0.382584" width="1228.92" height="947.211" filterUnits="userSpaceOnUse" color-interpolation-filters="sRGB">
<feFlood flood-opacity="0" result="BackgroundImageFix"/>
<feBlend mode="normal" in="SourceGraphic" in2="BackgroundImageFix" result="shape"/>
<feGaussianBlur stdDeviation="36.8087" result="effect1_foregroundBlur_382_307"/>
</filter>
</defs>
</svg>
