<svg width="1332" height="985" viewBox="0 0 1332 985" fill="none" xmlns="http://www.w3.org/2000/svg">
<g filter="url(#filter0_f_381_66)">
<path fill-rule="evenodd" clip-rule="evenodd" d="M1306.53 269.42L223.748 25L25.5366 903.077L278.725 960.23L213.8 808.042L211.467 802.568L241.095 809.256L387.202 734.669L644.964 767.378L850.004 624.003L879.832 554.564L924.282 503.951L1306.53 269.421L1306.53 269.42L1306.53 269.42ZM1306.53 269.42L223.75 25.0009L53.8174 777.804L216.571 814.543L213.8 808.042L211.464 802.567L241.093 809.255L387.2 734.668L644.962 767.377L850.002 624.002L879.885 554.318L924.28 503.95L1306.53 269.42Z" fill="url(#paint0_radial_381_66)"/>
</g>
<defs>
<filter id="filter0_f_381_66" x="0.997967" y="0.460857" width="1330.07" height="984.309" filterUnits="userSpaceOnUse" color-interpolation-filters="sRGB">
<feFlood flood-opacity="0" result="BackgroundImageFix"/>
<feBlend mode="normal" in="SourceGraphic" in2="BackgroundImageFix" result="shape"/>
<feGaussianBlur stdDeviation="12.2696" result="effect1_foregroundBlur_381_66"/>
</filter>
<radialGradient id="paint0_radial_381_66" cx="0" cy="0" r="1" gradientUnits="userSpaceOnUse" gradientTransform="translate(146.154 884.64) rotate(32.2756) scale(84.4872 104.184)">
<stop stop-color="#91694B"/>
<stop offset="1" stop-color="#7E6046"/>
</radialGradient>
</defs>
</svg>
