<svg width="966" height="459" viewBox="0 0 966 459" fill="none" xmlns="http://www.w3.org/2000/svg">
<path d="M46.5449 54.3555H898.871L880.754 126.416C880.295 128.24 879.449 129.944 878.273 131.411L837.616 182.129C835.957 184.198 833.71 185.714 831.17 186.477L763.906 206.685L728.666 221.168C723.758 223.185 720.553 227.966 720.553 233.273V293.959C720.553 296.309 719.921 298.616 718.721 300.637L688.407 351.731C686.973 354.147 684.799 356.038 682.207 357.124L624.823 381.161C623.221 381.831 621.503 382.177 619.767 382.177H538.758C537.27 382.177 535.793 381.923 534.391 381.427L445.556 349.984C441.106 348.409 436.152 349.353 432.592 352.454L376.611 401.227C374.228 403.304 371.174 404.447 368.014 404.447H289.596C288.435 404.447 287.279 404.293 286.158 403.988L251.177 394.463C249.466 393.998 247.868 393.189 246.479 392.087L205.816 359.812C202.385 357.089 197.819 356.262 193.652 357.611L121.038 381.1C118.857 381.805 116.528 381.926 114.286 381.448L46.5449 367.033V54.3555Z" fill="url(#paint0_linear_394_28)"/>
<g filter="url(#filter0_f_394_28)">
<path d="M260.854 147.603C332.835 147.603 369.371 94.1618 378.641 67.4414H434.263L412.178 81.3469C361.464 198.317 291.118 159.327 260.854 147.603Z" fill="#9F744E"/>
</g>
<g filter="url(#filter1_f_394_28)">
<mask id="mask0_394_28" style="mask-type:alpha" maskUnits="userSpaceOnUse" x="40" y="20" width="881" height="406">
<path fill-rule="evenodd" clip-rule="evenodd" d="M892.326 20H40V330.981L46.5435 332.835V388.474L97.5601 402.612C99.7724 403.225 102.107 403.245 104.33 402.671L197.663 378.551C201.577 377.539 205.738 378.393 208.937 380.863L251.146 413.458C252.527 414.525 254.108 415.304 255.794 415.751L291.759 425.278C292.853 425.567 293.979 425.714 295.11 425.714H375.635C378.735 425.714 381.734 424.614 384.098 422.61L441.7 373.784C445.223 370.798 450.058 369.889 454.424 371.393L545.73 402.834C547.101 403.306 548.541 403.547 549.991 403.547H633.103C634.796 403.547 636.474 403.219 638.042 402.58L696.948 378.574C699.54 377.518 701.726 375.658 703.183 373.268L734.172 322.453C735.424 320.401 736.086 318.043 736.086 315.639V255.471C736.086 250.119 739.345 245.306 744.315 243.319L780.437 228.876L849.374 208.727C851.894 207.99 854.134 206.513 855.803 204.487L897.168 154.284C898.545 152.612 899.486 150.625 899.906 148.5L920.137 46.1751H899.266L885.583 46.6738L892.326 20ZM885.583 46.6738L46.5435 77.258V332.835L89.7216 345.067C91.9778 345.706 94.3643 345.727 96.6315 345.128L187.458 321.133C191.437 320.082 195.679 320.964 198.91 323.514L239.936 355.901C241.324 356.996 242.919 357.799 244.625 358.261L279.621 367.738C280.737 368.04 281.887 368.193 283.042 368.193H361.489C364.638 368.193 367.68 367.058 370.06 364.996L426.063 316.468C429.615 313.39 434.546 312.453 438.979 314.014L527.855 345.3C529.252 345.792 530.721 346.043 532.201 346.043H613.235C614.962 346.043 616.673 345.701 618.268 345.037L675.662 321.126C678.254 320.046 680.43 318.162 681.869 315.75L712.16 264.972C713.37 262.945 714.008 260.628 714.008 258.267V198.013C714.008 192.697 717.224 187.909 722.144 185.898L757.361 171.504L824.631 151.403C827.167 150.646 829.413 149.137 831.074 147.076L871.716 96.6523C872.9 95.1834 873.752 93.4759 874.215 91.6468L885.583 46.6738Z" fill="url(#paint1_linear_394_28)"/>
</mask>
<g mask="url(#mask0_394_28)">
<g filter="url(#filter2_f_394_28)">
<path d="M952.857 425.719H875.903L-13.9848 445.346L5.66316 340.571L883.271 89.5136L892.276 60.8992H918.474L952.857 425.719Z" fill="#A68256"/>
</g>
</g>
</g>
<g filter="url(#filter3_f_394_28)">
<path d="M66.1758 334.101L899.689 65.8066L869.424 189.32L755.726 244.942L700.922 355.368L519.332 392.995H66.1758V334.101Z" fill="#8B6744"/>
</g>
<defs>
<filter id="filter0_f_394_28" x="236.314" y="42.9023" width="222.488" height="144.944" filterUnits="userSpaceOnUse" color-interpolation-filters="sRGB">
<feFlood flood-opacity="0" result="BackgroundImageFix"/>
<feBlend mode="normal" in="SourceGraphic" in2="BackgroundImageFix" result="shape"/>
<feGaussianBlur stdDeviation="12.2696" result="effect1_foregroundBlur_394_28"/>
</filter>
<filter id="filter1_f_394_28" x="26.9125" y="47.8109" width="906.312" height="390.99" filterUnits="userSpaceOnUse" color-interpolation-filters="sRGB">
<feFlood flood-opacity="0" result="BackgroundImageFix"/>
<feBlend mode="normal" in="SourceGraphic" in2="BackgroundImageFix" result="shape"/>
<feGaussianBlur stdDeviation="6.54377" result="effect1_foregroundBlur_394_28"/>
</filter>
<filter id="filter2_f_394_28" x="-20.5281" y="54.3547" width="979.929" height="397.535" filterUnits="userSpaceOnUse" color-interpolation-filters="sRGB">
<feFlood flood-opacity="0" result="BackgroundImageFix"/>
<feBlend mode="normal" in="SourceGraphic" in2="BackgroundImageFix" result="shape"/>
<feGaussianBlur stdDeviation="3.27189" result="effect1_foregroundBlur_394_28"/>
</filter>
<filter id="filter3_f_394_28" x="0.738075" y="0.368935" width="964.389" height="458.065" filterUnits="userSpaceOnUse" color-interpolation-filters="sRGB">
<feFlood flood-opacity="0" result="BackgroundImageFix"/>
<feBlend mode="normal" in="SourceGraphic" in2="BackgroundImageFix" result="shape"/>
<feGaussianBlur stdDeviation="32.7189" result="effect1_foregroundBlur_394_28"/>
</filter>
<linearGradient id="paint0_linear_394_28" x1="80.8997" y1="74.8443" x2="458.265" y2="239.589" gradientUnits="userSpaceOnUse">
<stop stop-color="#6F5237"/>
<stop offset="1" stop-color="#8F6B45"/>
</linearGradient>
<linearGradient id="paint1_linear_394_28" x1="158.773" y1="45.0414" x2="320.76" y2="248.763" gradientUnits="userSpaceOnUse">
<stop stop-color="#6F5237"/>
<stop offset="1" stop-color="#8F6B45"/>
</linearGradient>
</defs>
</svg>
