<svg width="993" height="491" viewBox="0 0 993 491" fill="none" xmlns="http://www.w3.org/2000/svg">
<g filter="url(#filter0_f_400_569)">
<path d="M922.596 420.359H70.2695L88.3869 348.298C88.8455 346.475 89.6917 344.771 90.8679 343.304L131.525 292.586C133.183 290.517 135.431 289 137.971 288.238L205.235 268.029L240.475 253.547C245.383 251.53 248.587 246.749 248.587 241.442V180.756C248.587 178.406 249.22 176.099 250.419 174.078L280.734 122.984C282.168 120.567 284.341 118.676 286.933 117.591L344.318 93.5542C345.919 92.8835 347.638 92.538 349.374 92.538H430.383C431.871 92.538 433.347 92.7917 434.75 93.288L523.584 124.731C528.035 126.306 532.989 125.362 536.548 122.261L592.529 73.4874C594.912 71.4113 597.966 70.2676 601.127 70.2676H679.544C680.706 70.2676 681.862 70.4222 682.982 70.7272L717.964 80.2514C719.675 80.7172 721.273 81.5259 722.662 82.6283L763.325 114.903C766.756 117.626 771.321 118.453 775.489 117.104L848.103 93.6151C850.284 92.9094 852.612 92.7892 854.855 93.2664L922.596 107.682V420.359Z" fill="url(#paint0_linear_400_569)"/>
</g>
<g filter="url(#filter1_f_400_569)">
<path d="M708.287 327.112C636.306 327.112 599.77 380.553 590.499 407.273H534.877L556.962 393.368C607.677 276.398 678.022 315.388 708.287 327.112Z" fill="#E87777"/>
</g>
<g filter="url(#filter2_f_400_569)">
<mask id="mask0_400_569" style="mask-type:alpha" maskUnits="userSpaceOnUse" x="49" y="49" width="881" height="406">
<path fill-rule="evenodd" clip-rule="evenodd" d="M76.8124 454.715H929.139V143.734L922.594 141.88V86.2405L871.577 72.1031C869.365 71.4901 867.03 71.4697 864.808 72.0441L771.474 96.164C767.561 97.1754 763.4 96.3217 760.201 93.8513L717.991 61.2566C716.61 60.1902 715.03 59.4106 713.343 58.9639L677.378 49.4373C676.285 49.1476 675.158 49.0009 674.027 49.0009H593.502C590.403 49.0009 587.404 50.1009 585.04 52.1049L527.437 100.931C523.915 103.917 519.08 104.825 514.714 103.322L423.408 71.8805C422.037 71.4083 420.597 71.1673 419.147 71.1673H336.035C334.341 71.1673 332.664 71.496 331.096 72.1351L272.189 96.1407C269.597 97.197 267.412 99.0565 265.955 101.446L234.966 152.261C233.714 154.314 233.052 156.671 233.052 159.076V219.243C233.052 224.596 229.793 229.409 224.823 231.396L188.7 245.839L119.763 265.988C117.244 266.725 115.004 268.202 113.335 270.228L71.9696 320.431C70.5922 322.103 69.6513 324.09 69.2312 326.215L49.0005 428.54H69.8712L83.5554 428.041L76.8124 454.715ZM83.5554 428.041L922.594 397.457V141.88L879.417 129.648C877.161 129.009 874.774 128.988 872.507 129.587L781.681 153.582C777.701 154.633 773.459 153.751 770.229 151.201L729.202 118.814C727.815 117.719 726.22 116.916 724.514 116.454L689.517 106.977C688.402 106.675 687.252 106.522 686.096 106.522H607.65C604.501 106.522 601.458 107.657 599.079 109.719L543.076 158.247C539.523 161.325 534.593 162.262 530.159 160.701L441.283 129.414C439.887 128.923 438.418 128.672 436.938 128.672H355.904C354.176 128.672 352.466 129.014 350.871 129.678L293.476 153.589C290.884 154.668 288.708 156.553 287.27 158.965L256.978 209.743C255.769 211.77 255.13 214.087 255.13 216.448V276.702C255.13 282.018 251.915 286.806 246.994 288.817L211.778 303.211L144.507 323.312C141.972 324.069 139.725 325.578 138.064 327.638L97.4227 378.063C96.2388 379.531 95.3864 381.239 94.9241 383.068L83.5554 428.041Z" fill="url(#paint1_linear_400_569)"/>
</mask>
<g mask="url(#mask0_400_569)">
<g filter="url(#filter3_f_400_569)">
<path d="M16.2832 48.9954H93.2376L983.125 29.3691L963.477 134.144L85.8696 385.201L76.8643 413.816H50.6671L16.2832 48.9954Z" fill="#A65656"/>
</g>
</g>
</g>
<g filter="url(#filter4_f_400_569)">
<path d="M902.965 140.614L69.452 408.908L99.7169 285.395L213.415 229.772L268.219 119.346L449.809 81.7197H902.965V140.614Z" fill="#8B4444"/>
</g>
<defs>
<filter id="filter0_f_400_569" x="0.269531" y="0.267578" width="992.326" height="490.092" filterUnits="userSpaceOnUse" color-interpolation-filters="sRGB">
<feFlood flood-opacity="0" result="BackgroundImageFix"/>
<feBlend mode="normal" in="SourceGraphic" in2="BackgroundImageFix" result="shape"/>
<feGaussianBlur stdDeviation="35" result="effect1_foregroundBlur_400_569"/>
</filter>
<filter id="filter1_f_400_569" x="510.338" y="286.869" width="222.488" height="144.944" filterUnits="userSpaceOnUse" color-interpolation-filters="sRGB">
<feFlood flood-opacity="0" result="BackgroundImageFix"/>
<feBlend mode="normal" in="SourceGraphic" in2="BackgroundImageFix" result="shape"/>
<feGaussianBlur stdDeviation="12.2696" result="effect1_foregroundBlur_400_569"/>
</filter>
<filter id="filter2_f_400_569" x="35.9125" y="35.9125" width="906.314" height="390.991" filterUnits="userSpaceOnUse" color-interpolation-filters="sRGB">
<feFlood flood-opacity="0" result="BackgroundImageFix"/>
<feBlend mode="normal" in="SourceGraphic" in2="BackgroundImageFix" result="shape"/>
<feGaussianBlur stdDeviation="6.54377" result="effect1_foregroundBlur_400_569"/>
</filter>
<filter id="filter3_f_400_569" x="9.73943" y="22.8254" width="979.929" height="397.535" filterUnits="userSpaceOnUse" color-interpolation-filters="sRGB">
<feFlood flood-opacity="0" result="BackgroundImageFix"/>
<feBlend mode="normal" in="SourceGraphic" in2="BackgroundImageFix" result="shape"/>
<feGaussianBlur stdDeviation="3.27189" result="effect1_foregroundBlur_400_569"/>
</filter>
<filter id="filter4_f_400_569" x="4.01347" y="16.281" width="964.389" height="458.065" filterUnits="userSpaceOnUse" color-interpolation-filters="sRGB">
<feFlood flood-opacity="0" result="BackgroundImageFix"/>
<feBlend mode="normal" in="SourceGraphic" in2="BackgroundImageFix" result="shape"/>
<feGaussianBlur stdDeviation="32.7189" result="effect1_foregroundBlur_400_569"/>
</filter>
<linearGradient id="paint0_linear_400_569" x1="888.241" y1="399.871" x2="510.876" y2="235.126" gradientUnits="userSpaceOnUse">
<stop stop-color="#5F2D2D"/>
<stop offset="1" stop-color="#8F4945"/>
</linearGradient>
<linearGradient id="paint1_linear_400_569" x1="810.366" y1="429.673" x2="648.378" y2="225.952" gradientUnits="userSpaceOnUse">
<stop stop-color="#6F5237"/>
<stop offset="1" stop-color="#8F6B45"/>
</linearGradient>
</defs>
</svg>
