<svg width="572" height="488" viewBox="0 0 572 488" fill="none" xmlns="http://www.w3.org/2000/svg">
<g filter="url(#filter0_f_400_578)">
<path fill-rule="evenodd" clip-rule="evenodd" d="M539.121 33.1289L320.557 106.629L269.306 145.964C269.213 145.931 269.121 145.899 269.028 145.866L268.884 145.816C205.755 123.733 127.483 154.519 94.0586 214.577C76.5678 246.005 74.8242 279.222 86.1828 306.913C54.8208 320.66 34.0511 343.717 33.2914 370.378C32.026 414.784 86.7516 452.371 155.524 454.331C224.297 456.291 281.074 421.881 282.34 377.475C282.341 377.422 282.342 377.368 282.344 377.315L529.113 384.347L539.121 33.1289Z" fill="url(#paint0_linear_400_578)"/>
</g>
<defs>
<filter id="filter0_f_400_578" x="0.550678" y="0.410053" width="571.289" height="486.719" filterUnits="userSpaceOnUse" color-interpolation-filters="sRGB">
<feFlood flood-opacity="0" result="BackgroundImageFix"/>
<feBlend mode="normal" in="SourceGraphic" in2="BackgroundImageFix" result="shape"/>
<feGaussianBlur stdDeviation="16.3594" result="effect1_foregroundBlur_400_578"/>
</filter>
<linearGradient id="paint0_linear_400_578" x1="461.484" y1="94.9321" x2="249.731" y2="350.269" gradientUnits="userSpaceOnUse">
<stop stop-color="#BE934D"/>
<stop offset="1" stop-color="#A2774A"/>
</linearGradient>
</defs>
</svg>
