<svg width="627" height="807" viewBox="0 0 627 807" fill="none" xmlns="http://www.w3.org/2000/svg">
<g filter="url(#filter0_f_400_590)">
<path d="M525.84 715.891L693.552 101.585L589.068 87.3903C587.909 87.233 586.735 87.2315 585.576 87.386L505.965 97.9992C503.117 98.3789 500.473 99.6855 498.441 101.717L458.946 141.209C458.501 141.654 458.024 142.067 457.519 142.443L430.451 162.641C427.222 165.051 423.064 165.839 419.177 164.778L327.173 139.659C325.897 139.311 324.576 139.158 323.255 139.206L243.167 142.09C240.55 142.184 238.022 143.061 235.908 144.608L193.671 175.521C191.281 177.27 189.555 179.778 188.775 182.635L174.131 236.272C173.446 238.783 173.525 241.442 174.358 243.908L196.968 310.842C199.362 317.929 195.34 325.577 188.144 327.621L117.48 347.685C113.07 348.937 109.637 352.406 108.429 356.828L94.4749 407.942C93.9235 409.961 93.8647 412.084 94.3033 414.131L99.8451 439.991C100.312 442.169 101.327 444.192 102.794 445.868L135.213 482.905C139.86 488.214 139.462 496.25 134.314 501.075L95.4975 537.449C92.4631 540.293 90.9607 544.409 91.4498 548.539L97.4188 598.927L525.84 715.891Z" fill="url(#paint0_linear_400_590)"/>
</g>
<g filter="url(#filter1_f_400_590)">
<mask id="mask0_400_590" style="mask-type:alpha" maskUnits="userSpaceOnUse" x="60" y="47" width="612" height="663">
<path fill-rule="evenodd" clip-rule="evenodd" d="M671.115 95.3839L503.402 709.689L133.654 608.744L132.738 603.426L66.5844 585.365L60.2997 546.973C59.7049 543.34 60.6681 539.624 62.953 536.737L105.018 483.587C108.692 478.945 108.792 472.414 105.263 467.662L77.5942 430.403C76.3046 428.666 75.4656 426.637 75.1521 424.497L71.2793 398.059C71.0179 396.274 71.1282 394.455 71.6032 392.715L86.2352 339.12C87.3477 335.045 90.3585 331.758 94.3201 330.293L157.592 306.887C163.877 304.563 167.391 297.866 165.732 291.374L148.151 222.547C147.59 220.351 147.609 218.047 148.206 215.861L163.534 159.717C164.219 157.208 165.636 154.96 167.605 153.259L205.856 120.221C207.936 118.424 210.528 117.328 213.266 117.088L282.162 111.039C283.704 110.903 285.259 111.043 286.753 111.451L364.142 132.579C368.386 133.737 372.927 132.687 376.231 129.782L400.751 108.225L437.444 66.0328C439.345 63.846 441.919 62.3524 444.761 61.786L513.62 48.0638C515.095 47.7698 516.609 47.7324 518.097 47.953L645.466 66.8429L641.359 81.8853L638.074 91.5853L671.115 95.3839ZM638.074 91.5853L436.612 686.387L132.738 603.426L127.212 571.357C126.574 567.655 127.557 563.858 129.912 560.931L171.195 509.619C174.963 504.936 175.056 498.288 171.421 493.501L143.811 457.137C142.496 455.405 141.633 453.373 141.3 451.225L137.319 425.507C137.037 423.689 137.142 421.832 137.627 420.058L151.836 368.013C152.961 363.891 156.027 360.579 160.048 359.138L222.602 336.735C229.005 334.442 232.584 327.627 230.838 321.054L213.062 254.124C212.469 251.893 212.477 249.545 213.085 247.318L227.987 192.736C228.684 190.182 230.139 187.9 232.159 186.191L270.004 154.174C272.091 152.408 274.679 151.341 277.405 151.121L346.159 145.576C347.672 145.454 349.194 145.596 350.658 145.996L428.111 167.141C432.309 168.287 436.802 167.272 440.099 164.432L464.424 143.48L500.746 102.44C502.667 100.27 505.254 98.7982 508.101 98.2567L576.967 85.1582C578.266 84.9112 579.594 84.8623 580.907 85.0133L638.074 91.5853Z" fill="url(#paint1_linear_400_590)"/>
</mask>
<g mask="url(#mask0_400_590)">
<g filter="url(#filter2_f_400_590)">
<path d="M195.342 -76.2424L180.2 -20.7782L-21.7947 613.258L125.631 638.29L642.309 99.6767L683.288 103.89L688.443 85.0087L195.342 -76.2424Z" fill="#A66743"/>
</g>
</g>
</g>
<g filter="url(#filter3_f_400_590)">
<path d="M131.713 555.954L149.283 537.506L144.942 412.682L181.594 339.767L287.871 218.523L415.641 240.159L590.792 84.0773L771.315 4.87599L540.718 21.7516L496.79 84.0773L436.837 162.52L329.244 133.145L232.871 128.841L181.594 219.616L191.947 278.74L144.942 322.99L101.314 385.745L108.53 456.36L116.779 584.066L131.713 555.954Z" fill="#AE563D"/>
</g>
<defs>
<filter id="filter0_f_400_590" x="0.359375" y="-3.72852" width="784.193" height="810.619" filterUnits="userSpaceOnUse" color-interpolation-filters="sRGB">
<feFlood flood-opacity="0" result="BackgroundImageFix"/>
<feBlend mode="normal" in="SourceGraphic" in2="BackgroundImageFix" result="shape"/>
<feGaussianBlur stdDeviation="45.5" result="effect1_foregroundBlur_400_590"/>
</filter>
<filter id="filter1_f_400_590" x="47.0394" y="34.723" width="637.163" height="616.656" filterUnits="userSpaceOnUse" color-interpolation-filters="sRGB">
<feFlood flood-opacity="0" result="BackgroundImageFix"/>
<feBlend mode="normal" in="SourceGraphic" in2="BackgroundImageFix" result="shape"/>
<feGaussianBlur stdDeviation="6.54377" result="effect1_foregroundBlur_400_590"/>
</filter>
<filter id="filter2_f_400_590" x="-28.3387" y="-82.786" width="723.326" height="727.621" filterUnits="userSpaceOnUse" color-interpolation-filters="sRGB">
<feFlood flood-opacity="0" result="BackgroundImageFix"/>
<feBlend mode="normal" in="SourceGraphic" in2="BackgroundImageFix" result="shape"/>
<feGaussianBlur stdDeviation="3.27189" result="effect1_foregroundBlur_400_590"/>
</filter>
<filter id="filter3_f_400_590" x="35.8767" y="-60.5608" width="800.875" height="710.065" filterUnits="userSpaceOnUse" color-interpolation-filters="sRGB">
<feFlood flood-opacity="0" result="BackgroundImageFix"/>
<feBlend mode="normal" in="SourceGraphic" in2="BackgroundImageFix" result="shape"/>
<feGaussianBlur stdDeviation="32.7189" result="effect1_foregroundBlur_400_590"/>
</filter>
<linearGradient id="paint0_linear_400_590" x1="504.527" y1="683.465" x2="517.867" y2="356.583" gradientUnits="userSpaceOnUse">
<stop stop-color="#523029"/>
<stop offset="1" stop-color="#452B2A"/>
</linearGradient>
<linearGradient id="paint1_linear_400_590" x1="497" y1="615.957" x2="403.719" y2="385.661" gradientUnits="userSpaceOnUse">
<stop stop-color="#6F5237"/>
<stop offset="1" stop-color="#8F6B45"/>
</linearGradient>
</defs>
</svg>
