<svg width="1219" height="1421" viewBox="0 0 1219 1421" fill="none" xmlns="http://www.w3.org/2000/svg">
<g filter="url(#filter0_f_382_275)">
<path fill-rule="evenodd" clip-rule="evenodd" d="M87.6371 836.888V746.912C87.6371 754.14 93.4965 759.999 100.725 759.999H253.355L303.328 829.228C309.576 837.884 303.392 849.976 292.717 849.976H100.725C93.4965 849.976 87.6371 844.117 87.6371 836.888ZM373.928 792.718C334.316 792.718 299.337 779.453 278.372 759.2C286.16 756.338 289.751 746.384 284.275 739.069L283.608 738.178C275.327 727.116 289.833 707.028 303.587 708.352C309.261 708.898 315.077 709.181 321 709.181C361.813 709.181 397.525 695.723 417.082 675.617C423.382 669.14 434.535 667.62 442.195 672.411C451.627 678.309 462.103 681.594 473.137 681.594C503.702 681.594 529.991 656.387 541.63 620.25C542.406 617.843 544.707 616.257 547.237 616.257C566.814 616.257 584.636 605.916 597.979 588.985C599.605 586.922 601.739 585.316 604.154 584.283C631.357 572.643 650.503 544.862 650.503 512.443C650.503 506.806 653.999 501.609 659.332 499.782C697.852 486.587 724.601 457.561 724.601 423.875C724.601 406.761 717.697 390.849 705.852 377.605C702.885 374.288 701.39 369.837 702.229 365.466L706.473 343.367C706.483 343.317 706.5 343.27 706.525 343.226C706.578 343.132 706.663 343.059 706.765 343.021C715.097 339.889 722.742 335.266 729.398 329.463C733.636 325.769 739.544 324.476 744.951 326.014C751.274 327.812 757.93 328.773 764.803 328.773C789.268 328.773 810.993 316.604 824.659 297.782C830.291 290.027 842.512 287.979 851.831 290.217C854.038 290.747 856.302 291.022 858.609 291.022C876.649 291.022 897.639 257.078 906.428 225.342C909.312 214.927 923.554 208.384 934.059 210.922C938.585 212.016 943.396 212.617 948.473 212.617C986.784 212.617 996.558 207.536 1023.36 182.853C1027.29 179.23 1032.28 174.982 1037.73 170.339C1041.87 166.81 1046.28 163.052 1050.7 159.169C1077.97 154.32 1108.79 140.965 1139.57 106.383C1142.65 102.921 1147.36 101.068 1151.83 102.304C1194.82 114.201 1148.91 156.674 1117.65 185.59L1117.65 185.592C1111.99 190.822 1106.82 195.608 1102.74 199.689C1074.93 227.5 1064.79 233.226 1025.03 233.226C1019.75 233.226 1014.75 232.545 1010.04 231.306C999.342 228.492 984.466 235.046 981.845 245.794C973.004 282.047 950.812 321.567 931.783 321.567C929.499 321.567 927.256 321.284 925.065 320.739C915.387 318.333 902.362 320.379 896.873 328.705C882.712 350.183 860.021 364.101 834.444 364.101C827.408 364.101 820.59 363.048 814.108 361.073C808.398 359.334 802.072 360.741 797.74 364.846C789.249 372.893 779.206 378.93 768.189 382.306C762.93 383.918 758.611 388.01 757.61 393.419L757.388 394.616C756.487 399.482 758.456 404.389 762.167 407.664C781.145 424.407 792.729 446.736 792.729 471.255C792.729 508.978 765.311 541.514 725.733 556.507C719.758 558.771 715.839 564.658 715.839 571.048C715.839 607.623 695.921 638.958 667.635 652.042C665.206 653.166 663.082 654.873 661.516 657.044C647.652 676.266 629.086 688.018 608.685 688.018C606.078 688.018 603.706 689.673 602.97 692.174C590.944 733.074 563.602 761.635 531.797 761.635C520.392 761.635 509.561 757.963 499.804 751.366C491.98 746.076 480.087 747.641 473.809 754.698C453.555 777.464 416.404 792.718 373.928 792.718ZM1051.05 72.4619L974.961 146.593C956.201 149.89 939.129 149.256 924.984 148.731C908.234 148.109 895.588 147.64 889.102 154.029C888.671 154.453 888.033 154.6 887.475 154.369C886.519 153.974 886.249 152.712 887.003 152.004L971.5 72.6263C980.142 64.5074 974.397 50 962.539 50H1041.92C1053.66 50 1059.46 64.2679 1051.05 72.4619ZM301.589 935.653L50 836.954V1272.09H337.037L337.036 1272.29C337.036 1327.31 401.885 1371.91 481.88 1371.91C561.875 1371.91 626.724 1327.31 626.724 1272.29C626.724 1239.26 603.348 1209.98 567.354 1191.86C581.472 1157.98 580.545 1116.8 561.258 1077.28C524.4 1001.75 434.449 960.876 360.347 985.986C360.241 986.022 360.135 986.058 360.029 986.094L359.852 986.155L301.589 935.653Z" fill="url(#paint0_linear_382_275)"/>
</g>
<defs>
<filter id="filter0_f_382_275" x="0.921715" y="0.921715" width="1217.48" height="1420.06" filterUnits="userSpaceOnUse" color-interpolation-filters="sRGB">
<feFlood flood-opacity="0" result="BackgroundImageFix"/>
<feBlend mode="normal" in="SourceGraphic" in2="BackgroundImageFix" result="shape"/>
<feGaussianBlur stdDeviation="24.5391" result="effect1_foregroundBlur_382_275"/>
</filter>
<linearGradient id="paint0_linear_382_275" x1="221.154" y1="245.825" x2="864.471" y2="852.194" gradientUnits="userSpaceOnUse">
<stop stop-color="#BE934D"/>
<stop offset="1" stop-color="#A2774A"/>
</linearGradient>
</defs>
</svg>
